<?xml version="1.0" standalone="no"?>
<!DOCTYPE svg PUBLIC "-//W3C//DTD SVG 20010904//EN"
 "http://www.w3.org/TR/2001/REC-SVG-20010904/DTD/svg10.dtd">
<svg version="1.0" xmlns="http://www.w3.org/2000/svg"
 width="512.000000pt" height="336.000000pt" viewBox="0 0 512.000000 336.000000"
 preserveAspectRatio="xMidYMid meet">
<metadata>
Created by potrace 1.15, written by Peter Selinger 2001-2017
</metadata>
<g transform="translate(0.000000,336.000000) scale(0.100000,-0.100000)"
fill="#000000" stroke="none">
<path d="M2295 3252 c-175 -61 -318 -241 -580 -731 -80 -150 -156 -289 -170
-308 -20 -30 -22 -39 -12 -66 6 -17 32 -53 58 -79 280 -280 1417 -685 2035
-724 107 -6 217 6 229 26 8 13 81 413 101 555 25 169 25 467 1 554 -63 229
-242 349 -464 311 -40 -6 -76 -16 -79 -21 -7 -12 163 -93 229 -110 32 -8 47
-16 46 -28 -1 -46 -26 -145 -37 -149 -23 -7 -156 40 -252 89 -129 66 -236 149
-418 320 -200 189 -285 262 -351 306 -104 69 -234 91 -336 55z"/>
<path d="M392 2502 c-143 -51 -210 -213 -200 -481 4 -111 9 -138 40 -229 100
-291 350 -555 762 -804 420 -255 975 -469 1630 -628 223 -54 531 -114 549
-107 7 3 37 64 67 136 30 72 58 131 62 131 3 0 147 -91 319 -202 l312 -202
176 1 c429 2 718 109 807 298 61 130 -8 436 -137 608 -122 162 -294 236 -715
310 l-31 6 -18 -117 c-9 -64 -19 -164 -22 -222 -4 -88 -9 -112 -30 -149 -32
-56 -104 -90 -220 -105 -347 -43 -1288 197 -1928 492 -268 123 -450 236 -571
357 -97 96 -136 169 -136 254 -1 75 19 118 90 194 57 61 143 171 163 209 11
21 -2 29 -178 99 -294 118 -450 160 -618 166 -100 3 -129 0 -173 -15z"/>
<path d="M1342 1946 c-47 -49 -62 -71 -62 -94 0 -35 38 -89 111 -158 336 -314
1563 -743 2204 -771 90 -3 154 -2 180 6 l40 11 3 97 c1 54 5 106 8 115 4 15
-8 17 -123 16 -427 -1 -1247 226 -1808 502 -198 97 -328 181 -420 271 l-72 69
-61 -64z"/>
</g>
</svg>
