<svg id="svg" version="1.1" xmlns="http://www.w3.org/2000/svg" xmlns:xlink="http://www.w3.org/1999/xlink" width="400" height="456.75057208237985" viewBox="0, 0, 400,456.75057208237985"><g id="svgg"><path id="path0" d="M218.200 116.899 C 213.975 118.356,209.993 120.791,206.546 124.026 C 203.676 126.719,199.600 132.056,199.600 133.119 C 199.600 133.704,201.134 135.864,204.031 139.357 C 205.363 140.964,210.800 148.682,210.800 148.967 C 210.800 149.087,211.397 150.133,212.127 151.292 C 214.106 154.435,215.342 157.337,216.854 162.394 C 217.999 166.224,217.534 174.013,215.863 179.000 C 214.562 182.880,211.868 189.043,211.229 189.600 C 211.103 189.710,210.599 190.610,210.109 191.600 C 209.619 192.590,208.786 194.120,208.260 195.000 C 207.733 195.880,206.061 198.670,204.545 201.200 C 203.028 203.730,201.578 206.250,201.323 206.800 C 200.261 209.083,198.800 213.188,198.800 213.888 C 198.800 214.302,198.638 214.811,198.441 215.020 C 197.886 215.608,197.579 218.442,197.338 225.200 C 197.067 232.803,197.470 235.692,199.907 243.600 C 200.924 246.898,201.154 247.515,202.000 249.195 C 202.220 249.632,202.400 250.165,202.400 250.379 C 202.400 250.594,203.615 252.891,205.100 255.485 C 207.395 259.494,208.743 262.329,210.385 266.600 C 210.555 267.040,210.887 267.850,211.124 268.400 C 211.361 268.950,212.205 271.290,213.000 273.600 C 213.795 275.910,214.603 278.160,214.794 278.600 C 214.986 279.040,215.435 280.390,215.793 281.600 C 216.150 282.810,216.613 284.113,216.821 284.495 C 217.030 284.877,217.200 285.541,217.200 285.971 C 217.200 286.401,217.360 286.852,217.556 286.973 C 217.751 287.094,218.004 287.779,218.116 288.496 C 218.229 289.213,218.833 291.510,219.459 293.600 C 221.321 299.815,221.044 318.911,218.973 327.200 C 218.616 328.630,218.231 330.387,218.118 331.104 C 218.004 331.821,217.751 332.506,217.556 332.627 C 217.360 332.748,217.200 333.289,217.200 333.829 C 217.200 334.369,217.034 335.123,216.832 335.505 C 216.629 335.887,215.961 337.460,215.348 339.000 C 211.927 347.583,203.186 358.210,196.400 362.036 C 195.850 362.346,195.125 362.816,194.790 363.081 C 194.454 363.345,192.114 364.567,189.590 365.796 C 187.065 367.025,184.687 368.204,184.305 368.415 C 183.923 368.627,183.246 368.800,182.800 368.800 C 182.354 368.800,181.677 368.959,181.295 369.153 C 178.753 370.446,175.309 371.587,173.924 371.594 C 173.332 371.597,172.751 371.756,172.633 371.946 C 172.516 372.136,171.740 372.401,170.910 372.534 C 170.079 372.667,168.230 373.057,166.800 373.400 C 163.513 374.188,157.747 375.144,151.400 375.953 C 149.640 376.177,146.040 376.664,143.400 377.034 C 140.760 377.405,136.890 377.855,134.800 378.034 C 132.710 378.214,129.020 378.539,126.600 378.757 C 124.180 378.974,120.040 379.340,117.400 379.569 C 114.760 379.798,112.087 380.097,111.461 380.233 C 110.834 380.370,108.494 380.649,106.261 380.854 C 104.027 381.059,100.490 381.385,98.400 381.578 C 96.310 381.771,92.620 382.231,90.200 382.600 C 87.780 382.969,84.540 383.440,83.000 383.647 C 81.460 383.855,79.120 384.192,77.800 384.397 C 76.480 384.602,74.230 384.939,72.800 385.145 C 71.370 385.352,68.850 385.831,67.200 386.208 C 63.758 386.996,61.443 387.478,58.600 387.999 C 57.500 388.201,54.890 388.842,52.800 389.424 C 50.710 390.005,48.550 390.566,48.000 390.671 C 47.450 390.775,46.640 391.002,46.200 391.175 C 45.760 391.349,44.410 391.801,43.200 392.179 C 40.260 393.099,39.021 393.586,35.035 395.384 C 28.178 398.478,26.491 401.638,30.149 404.534 C 32.756 406.598,37.947 408.857,41.800 409.605 C 42.680 409.776,44.418 410.198,45.663 410.543 C 50.271 411.821,58.556 413.137,67.200 413.966 C 69.730 414.208,72.250 414.513,72.800 414.643 C 74.677 415.087,86.184 415.668,99.800 416.007 C 118.876 416.480,124.800 417.617,124.800 420.801 C 124.800 422.923,117.801 427.047,111.300 428.754 C 106.874 429.916,106.120 430.137,105.000 430.599 C 104.340 430.872,102.945 431.338,101.900 431.635 C 100.855 431.932,100.000 432.315,100.000 432.487 C 100.000 432.659,99.726 432.800,99.392 432.800 C 98.218 432.800,94.400 435.516,94.400 436.351 C 94.400 436.934,96.948 438.800,97.743 438.800 C 98.110 438.800,98.723 438.961,99.105 439.157 C 102.211 440.755,113.273 441.978,135.800 443.215 C 146.339 443.794,199.894 443.796,216.400 443.219 C 243.802 442.260,272.348 440.814,275.400 440.231 C 276.060 440.105,278.940 439.804,281.800 439.562 C 293.699 438.556,295.528 438.388,298.200 438.052 C 300.965 437.704,311.072 436.204,313.400 435.796 C 314.060 435.680,315.950 435.414,317.600 435.205 C 324.571 434.321,326.849 434.022,331.400 433.393 C 334.040 433.028,337.370 432.571,338.800 432.378 C 343.532 431.737,344.577 431.557,347.194 430.933 C 355.487 428.958,355.839 425.695,348.384 419.929 C 347.623 419.340,346.048 418.116,344.885 417.208 C 340.552 413.827,325.271 403.600,324.551 403.600 C 324.417 403.600,323.449 402.970,322.400 402.200 C 321.351 401.430,320.358 400.800,320.194 400.800 C 320.030 400.800,319.019 400.170,317.947 399.400 C 316.875 398.630,315.910 398.000,315.803 398.000 C 315.696 398.000,314.345 397.190,312.800 396.200 C 311.255 395.210,309.814 394.400,309.596 394.400 C 309.378 394.400,309.200 394.220,309.200 394.000 C 309.200 393.780,309.026 393.600,308.814 393.600 C 308.465 393.600,300.477 388.190,300.000 387.630 C 299.890 387.501,299.080 386.866,298.200 386.219 C 297.320 385.572,296.510 384.943,296.400 384.821 C 296.290 384.700,295.120 383.700,293.800 382.600 C 290.217 379.614,282.512 371.808,279.793 368.409 C 277.333 365.336,274.400 361.300,274.400 360.990 C 274.400 360.894,273.798 359.867,273.063 358.708 C 270.009 353.892,265.200 342.294,265.200 339.745 C 265.200 339.313,265.038 338.789,264.841 338.580 C 264.644 338.371,264.395 337.480,264.289 336.600 C 264.183 335.720,263.715 332.570,263.250 329.600 C 261.715 319.806,262.194 308.898,265.137 286.600 C 265.589 283.176,267.079 275.449,267.611 273.772 C 267.825 273.096,268.000 272.209,268.000 271.800 C 268.000 271.391,268.170 270.504,268.377 269.828 C 268.726 268.693,269.461 265.632,270.449 261.200 C 270.880 259.266,271.084 258.445,272.430 253.200 C 272.911 251.330,273.468 248.990,273.670 248.000 C 273.872 247.010,274.201 245.390,274.403 244.400 C 276.439 234.381,276.902 224.809,275.640 218.800 C 275.202 216.710,274.730 214.460,274.591 213.800 C 274.453 213.140,274.192 212.240,274.011 211.800 C 273.830 211.360,273.287 210.010,272.803 208.800 C 272.320 207.590,270.880 204.440,269.604 201.800 C 266.945 196.301,266.301 194.833,265.564 192.600 C 265.274 191.720,264.893 190.829,264.718 190.620 C 264.543 190.411,264.400 189.824,264.400 189.315 C 264.400 188.806,264.241 188.077,264.047 187.695 C 262.209 184.075,260.943 168.208,261.981 161.800 C 263.283 153.769,264.443 149.882,266.292 147.362 C 266.791 146.681,267.200 145.931,267.200 145.696 C 267.200 145.460,267.341 145.207,267.512 145.133 C 267.862 144.984,270.211 140.158,270.984 138.000 C 272.310 134.298,272.526 133.151,272.512 129.900 C 272.463 118.421,261.744 117.359,249.345 127.605 C 246.886 129.636,247.234 129.725,243.443 126.096 C 235.237 118.240,225.062 114.533,218.200 116.899 " stroke="none" fill="#e44484" fill-rule="evenodd"></path><path id="path1" d="M0.000 228.200 L 0.000 456.400 200.000 456.400 L 400.000 456.400 400.000 228.200 L 400.000 0.000 200.000 0.000 L 0.000 0.000 0.000 228.200 M256.671 16.223 C 256.167 21.615,253.367 29.337,250.599 32.965 C 247.606 36.890,240.697 41.747,230.600 47.024 C 228.400 48.174,225.430 49.753,224.000 50.532 C 222.570 51.312,220.274 52.521,218.897 53.218 C 217.520 53.916,216.283 54.665,216.149 54.883 C 216.014 55.101,214.890 55.939,213.652 56.744 C 207.238 60.914,197.529 69.958,196.415 72.800 C 196.113 73.570,195.740 74.380,195.585 74.600 C 193.885 77.024,194.264 81.803,196.406 84.960 C 198.151 87.530,198.156 88.450,196.419 87.213 C 191.215 83.508,189.596 77.246,192.369 71.549 C 195.930 64.235,201.092 58.251,208.800 52.503 C 211.330 50.616,214.590 48.111,216.045 46.936 C 217.499 45.761,218.796 44.800,218.927 44.800 C 219.058 44.800,219.847 44.335,220.682 43.767 C 221.928 42.919,231.284 38.132,234.689 36.600 C 239.975 34.222,246.330 30.066,248.851 27.337 C 251.240 24.752,254.345 19.674,254.564 17.994 C 254.636 17.447,254.793 16.730,254.914 16.400 C 255.034 16.070,255.242 15.305,255.374 14.700 C 255.919 12.215,256.934 13.407,256.671 16.223 M250.183 43.700 C 249.738 47.512,248.373 54.966,247.747 57.000 C 246.429 61.287,244.533 65.304,242.551 68.011 C 238.077 74.122,237.237 84.584,240.633 91.875 C 241.165 93.017,241.600 94.064,241.600 94.202 C 241.600 94.340,242.050 95.043,242.600 95.764 C 243.150 96.486,243.600 97.269,243.600 97.504 C 243.600 97.740,243.825 98.014,244.100 98.112 C 244.375 98.210,244.477 98.423,244.326 98.586 C 243.477 99.502,238.563 93.234,237.595 90.000 C 237.298 89.010,236.935 88.020,236.787 87.800 C 235.722 86.219,235.442 79.953,236.237 75.500 C 236.530 73.858,235.749 73.435,234.431 74.520 C 233.488 75.298,230.052 76.069,229.331 75.665 C 228.832 75.386,229.189 74.865,231.187 72.960 C 232.547 71.662,234.161 69.880,234.772 69.000 C 238.788 63.219,242.004 58.402,242.649 57.198 C 243.062 56.427,243.782 55.257,244.250 54.598 C 245.532 52.790,249.200 44.451,249.200 43.345 C 249.200 43.045,249.380 42.800,249.600 42.800 C 249.820 42.800,250.000 42.530,250.000 42.200 C 250.000 41.870,250.096 41.600,250.214 41.600 C 250.331 41.600,250.317 42.545,250.183 43.700 M201.200 102.938 C 201.200 103.013,200.099 103.958,198.753 105.038 C 197.407 106.117,195.178 108.350,193.798 110.000 C 192.419 111.650,189.900 114.620,188.200 116.600 C 186.500 118.580,184.455 120.994,183.655 121.964 C 182.855 122.935,181.556 124.465,180.770 125.364 C 179.983 126.264,179.083 127.377,178.770 127.837 C 178.456 128.298,177.539 129.468,176.731 130.437 C 175.922 131.407,173.283 134.720,170.865 137.800 C 168.447 140.880,165.853 144.120,165.101 145.000 C 162.785 147.710,160.709 151.155,157.989 156.800 C 157.830 157.130,157.318 158.182,156.850 159.138 C 156.383 160.094,155.999 161.084,155.998 161.338 C 155.996 161.592,155.692 162.340,155.321 163.000 C 154.814 163.903,154.642 165.238,154.624 168.400 L 154.600 172.600 157.363 176.600 C 158.883 178.800,160.338 180.780,160.598 181.000 C 160.857 181.220,161.293 181.819,161.566 182.332 C 161.839 182.844,162.312 183.564,162.618 183.932 C 162.923 184.299,163.584 185.190,164.087 185.910 C 164.589 186.631,166.864 189.903,169.143 193.181 C 171.421 196.459,173.652 199.535,174.101 200.017 C 175.520 201.540,177.432 204.170,178.610 206.220 C 179.236 207.309,180.255 208.952,180.874 209.872 C 181.493 210.792,182.000 211.687,182.000 211.861 C 182.000 212.593,173.701 203.304,171.599 200.218 C 170.063 197.963,163.124 189.696,160.002 186.400 C 158.855 185.190,157.444 183.480,156.866 182.600 C 156.288 181.720,154.865 179.863,153.704 178.473 C 150.233 174.318,149.658 172.242,150.408 166.566 C 151.007 162.035,154.322 153.861,156.653 151.169 C 156.954 150.821,157.200 150.408,157.200 150.251 C 157.200 150.094,157.965 148.954,158.900 147.717 C 160.976 144.970,163.264 141.872,164.599 140.000 C 165.148 139.230,166.003 138.031,166.499 137.335 C 169.066 133.730,172.430 129.502,174.685 127.044 C 176.075 125.529,178.178 123.009,179.357 121.444 C 182.110 117.790,189.789 109.730,191.222 108.989 C 191.828 108.675,192.566 108.178,192.862 107.884 C 195.651 105.115,201.200 101.822,201.200 102.938 M227.600 115.840 C 228.590 115.973,229.571 116.244,229.780 116.441 C 229.989 116.638,230.424 116.800,230.746 116.800 C 231.583 116.800,234.400 118.093,234.400 118.477 C 234.400 118.655,234.670 118.800,235.000 118.800 C 235.330 118.800,235.600 118.980,235.600 119.200 C 235.600 119.420,235.804 119.600,236.052 119.600 C 236.878 119.600,240.685 122.514,244.907 126.378 L 246.849 128.155 248.206 127.425 C 248.952 127.023,249.886 126.396,250.281 126.032 C 251.353 125.046,256.257 121.600,256.590 121.600 C 256.749 121.600,257.446 121.358,258.140 121.061 C 261.549 119.605,265.826 119.099,267.505 119.953 C 267.887 120.148,268.681 120.531,269.269 120.804 C 272.079 122.112,273.886 126.866,273.425 131.735 C 273.176 134.368,272.116 138.724,271.609 139.200 C 271.182 139.601,268.396 145.414,268.398 145.900 C 268.399 146.175,268.220 146.400,268.000 146.400 C 267.780 146.400,267.600 146.670,267.600 147.000 C 267.600 147.330,267.458 147.600,267.284 147.600 C 266.803 147.600,264.886 151.618,264.612 153.200 C 264.479 153.970,264.188 155.500,263.967 156.600 C 263.745 157.700,263.417 159.590,263.239 160.800 C 263.061 162.010,262.687 164.350,262.409 166.000 C 262.122 167.704,262.009 170.123,262.147 171.600 C 262.870 179.332,263.179 181.694,263.524 182.124 C 263.879 182.568,264.083 183.499,264.658 187.303 C 264.782 188.129,265.045 188.905,265.242 189.026 C 265.439 189.148,265.600 189.597,265.600 190.026 C 265.600 190.454,266.050 191.737,266.600 192.877 C 267.150 194.017,267.600 195.276,267.600 195.675 C 267.600 196.074,267.780 196.400,268.000 196.400 C 268.220 196.400,268.400 196.655,268.400 196.968 C 268.400 197.280,268.661 198.045,268.980 198.668 C 269.300 199.290,269.962 200.700,270.453 201.800 C 270.943 202.900,271.452 203.890,271.582 204.000 C 272.192 204.514,274.000 208.580,274.000 209.437 C 274.000 209.967,274.180 210.400,274.400 210.400 C 274.620 210.400,274.800 210.772,274.800 211.226 C 274.800 211.681,274.985 212.398,275.211 212.821 C 277.541 217.175,277.563 239.022,275.243 244.926 C 274.999 245.545,274.800 246.570,274.800 247.202 C 274.800 247.835,274.620 248.464,274.400 248.600 C 274.180 248.736,274.000 249.617,274.000 250.557 C 274.000 251.497,273.884 252.383,273.741 252.525 C 273.267 253.000,272.026 256.985,272.013 258.076 C 272.006 258.668,271.843 259.250,271.652 259.368 C 271.460 259.486,271.179 260.532,271.027 261.692 C 270.412 266.379,270.298 267.016,270.005 267.400 C 269.838 267.620,269.571 268.700,269.413 269.800 C 269.255 270.900,268.985 271.980,268.813 272.200 C 268.507 272.592,268.327 273.378,267.625 277.400 C 267.432 278.500,267.170 279.670,267.042 280.000 C 266.565 281.228,265.494 288.873,264.772 296.200 C 263.226 311.879,262.945 320.935,263.808 327.200 C 264.156 329.730,264.538 332.790,264.656 334.000 C 264.774 335.210,265.035 336.371,265.235 336.580 C 265.436 336.789,265.600 337.379,265.600 337.891 C 265.600 338.821,267.377 344.782,268.046 346.095 C 268.241 346.477,268.400 347.088,268.400 347.453 C 268.400 348.106,271.083 354.011,271.557 354.400 C 271.691 354.510,272.218 355.455,272.728 356.499 C 273.238 357.543,273.871 358.623,274.136 358.899 C 274.400 359.175,275.776 361.199,277.192 363.397 C 279.890 367.585,280.424 368.274,284.000 372.178 C 286.778 375.210,287.958 376.360,289.802 377.828 C 290.611 378.473,292.431 380.106,293.845 381.459 C 295.259 382.811,297.088 384.422,297.908 385.038 C 298.729 385.654,299.490 386.275,299.600 386.419 C 299.906 386.818,307.477 392.000,307.754 392.000 C 307.888 392.000,308.854 392.604,309.899 393.342 C 310.945 394.079,312.745 395.204,313.900 395.842 C 315.054 396.479,315.999 397.135,316.000 397.300 C 316.000 397.465,316.360 397.600,316.800 397.600 C 317.240 397.600,317.600 397.752,317.600 397.937 C 317.600 398.122,318.230 398.613,319.000 399.028 C 319.770 399.443,320.400 399.921,320.400 400.091 C 320.400 400.261,320.601 400.400,320.846 400.400 C 321.092 400.400,322.127 400.992,323.146 401.716 C 324.166 402.440,325.540 403.290,326.200 403.605 C 326.860 403.920,328.503 404.948,329.851 405.889 C 331.199 406.830,332.426 407.600,332.577 407.600 C 332.729 407.600,333.443 408.050,334.164 408.600 C 334.886 409.150,335.684 409.600,335.938 409.600 C 336.192 409.600,336.400 409.742,336.400 409.916 C 336.400 410.090,337.300 410.758,338.400 411.400 C 339.500 412.042,340.400 412.710,340.400 412.884 C 340.400 413.058,340.593 413.200,340.829 413.200 C 341.064 413.200,341.492 413.425,341.778 413.700 C 342.065 413.975,344.045 415.550,346.179 417.200 C 353.332 422.732,354.925 424.690,354.463 427.383 C 354.152 429.200,351.808 431.163,349.924 431.187 C 349.332 431.194,348.749 431.358,348.630 431.551 C 348.511 431.745,347.375 432.013,346.106 432.148 C 344.838 432.283,342.720 432.555,341.400 432.753 C 340.080 432.950,337.380 433.316,335.400 433.566 C 333.420 433.816,331.491 434.117,331.112 434.234 C 330.264 434.496,325.686 435.120,321.342 435.566 C 319.550 435.750,317.901 436.014,317.677 436.153 C 317.453 436.291,315.679 436.599,313.735 436.836 C 311.791 437.074,308.850 437.438,307.200 437.645 C 305.550 437.852,303.210 438.115,302.000 438.229 C 300.790 438.343,299.440 438.598,299.000 438.796 C 298.560 438.993,296.850 439.252,295.200 439.371 C 283.049 440.245,281.199 440.403,271.200 441.415 C 267.060 441.833,257.003 442.391,249.800 442.601 C 245.840 442.716,240.440 443.014,237.800 443.263 C 227.255 444.257,147.295 445.277,143.419 444.467 C 142.308 444.235,135.910 443.837,129.200 443.584 C 122.490 443.330,115.830 442.957,114.400 442.755 C 112.970 442.553,110.630 442.282,109.200 442.152 C 107.770 442.022,106.429 441.755,106.220 441.558 C 106.011 441.361,105.273 441.200,104.580 441.200 C 103.887 441.200,102.798 441.035,102.160 440.833 C 101.522 440.630,99.920 440.147,98.600 439.758 C 97.280 439.368,96.110 438.949,96.000 438.825 C 95.890 438.701,95.440 438.402,95.000 438.160 C 92.768 436.931,93.898 434.412,97.473 432.651 C 98.753 432.020,100.278 431.256,100.862 430.952 C 101.446 430.648,102.265 430.400,102.682 430.400 C 103.099 430.400,103.611 430.253,103.820 430.073 C 104.029 429.893,105.190 429.526,106.400 429.256 C 118.385 426.588,127.533 420.946,122.474 419.341 C 122.103 419.224,121.440 418.976,121.000 418.791 C 118.291 417.651,107.324 416.742,92.000 416.385 C 78.642 416.075,70.431 415.605,68.600 415.047 C 68.160 414.912,66.090 414.609,64.000 414.372 C 60.340 413.957,58.936 413.768,52.400 412.810 C 50.750 412.568,48.590 412.269,47.600 412.146 C 46.610 412.023,45.629 411.760,45.420 411.561 C 45.211 411.363,44.570 411.200,43.996 411.200 C 43.423 411.200,42.604 410.936,42.176 410.613 C 41.749 410.290,40.725 410.020,39.900 410.013 C 39.075 410.006,38.400 409.820,38.400 409.600 C 38.400 409.380,37.995 409.194,37.500 409.187 C 36.685 409.176,35.240 408.539,31.800 406.674 C 25.590 403.306,26.152 398.401,33.097 395.345 C 34.364 394.788,35.940 394.095,36.600 393.805 C 38.022 393.180,42.818 391.489,44.800 390.914 C 45.570 390.691,47.010 390.284,48.000 390.011 C 48.990 389.738,50.430 389.287,51.200 389.009 C 54.157 387.944,55.500 387.600,56.705 387.600 C 57.391 387.600,58.050 387.443,58.168 387.252 C 58.286 387.060,59.242 386.795,60.292 386.663 C 61.341 386.531,63.370 386.128,64.800 385.767 C 67.329 385.129,70.077 384.706,75.000 384.196 C 76.320 384.059,77.760 383.788,78.200 383.594 C 79.284 383.114,83.828 382.372,88.200 381.960 C 90.180 381.774,93.330 381.447,95.200 381.234 C 97.070 381.021,100.336 380.678,102.458 380.473 C 104.580 380.267,106.560 379.944,106.858 379.755 C 107.156 379.565,109.380 379.270,111.800 379.098 C 114.220 378.927,118.630 378.614,121.600 378.403 C 133.327 377.570,142.586 376.589,143.340 376.099 C 143.593 375.935,145.420 375.673,147.400 375.519 C 151.902 375.167,155.582 374.663,158.316 374.022 C 159.480 373.750,160.674 373.620,160.970 373.733 C 161.266 373.847,162.383 373.706,163.454 373.420 C 164.524 373.135,166.390 372.691,167.600 372.434 C 172.659 371.359,177.510 369.999,179.375 369.132 C 180.241 368.729,181.182 368.400,181.465 368.400 C 181.747 368.400,183.273 367.770,184.856 367.000 C 186.438 366.230,187.956 365.600,188.229 365.600 C 189.406 365.600,196.666 361.276,198.506 359.479 C 199.001 358.995,200.034 358.123,200.803 357.539 C 202.497 356.253,205.168 353.679,206.225 352.314 C 206.651 351.763,207.797 350.252,208.772 348.956 C 209.747 347.660,210.647 346.510,210.772 346.400 C 211.560 345.709,215.193 338.136,215.762 336.000 C 216.652 332.654,216.925 331.716,217.215 331.000 C 217.575 330.114,217.692 329.575,218.789 323.800 C 220.573 314.402,220.856 302.933,219.435 297.600 C 218.789 295.175,218.286 292.831,217.739 289.696 C 217.614 288.979,217.351 288.294,217.156 288.173 C 216.960 288.052,216.800 287.601,216.800 287.171 C 216.800 286.741,216.632 286.077,216.426 285.695 C 215.405 283.800,214.800 282.188,214.800 281.362 C 214.800 280.859,214.620 280.336,214.400 280.200 C 214.180 280.064,214.000 279.543,214.000 279.043 C 214.000 278.543,213.872 278.005,213.715 277.848 C 213.271 277.405,212.001 273.882,212.000 273.095 C 212.000 272.707,211.837 272.077,211.638 271.695 C 211.439 271.313,210.617 269.290,209.812 267.200 C 209.007 265.110,208.179 263.087,207.974 262.705 C 207.768 262.323,207.600 261.832,207.600 261.613 C 207.600 261.394,206.970 260.231,206.200 259.027 C 205.430 257.823,204.800 256.712,204.800 256.557 C 204.800 256.402,204.391 255.719,203.892 255.038 C 203.056 253.898,202.678 253.179,201.614 250.700 C 201.401 250.205,200.771 248.743,200.214 247.450 C 199.656 246.158,199.200 244.773,199.200 244.374 C 199.200 243.974,199.039 243.548,198.842 243.426 C 198.645 243.305,198.387 242.529,198.268 241.703 C 197.893 239.095,197.327 236.642,196.814 235.400 C 196.041 233.525,196.095 220.348,196.887 217.800 C 197.229 216.700,197.738 214.720,198.019 213.400 C 198.299 212.080,198.680 210.829,198.864 210.620 C 199.049 210.411,199.200 210.004,199.200 209.715 C 199.200 209.146,201.991 203.127,202.406 202.800 C 202.546 202.690,203.001 202.015,203.416 201.300 C 203.832 200.585,204.314 200.000,204.486 200.000 C 204.659 200.000,204.800 199.803,204.800 199.562 C 204.800 199.321,205.134 198.646,205.543 198.062 C 205.951 197.478,206.739 196.190,207.293 195.200 C 207.848 194.210,208.918 192.320,209.672 191.000 C 211.556 187.702,214.000 182.495,214.000 181.779 C 214.000 181.455,214.162 180.877,214.361 180.495 C 214.560 180.113,214.941 178.990,215.209 178.000 C 215.477 177.010,215.944 175.521,216.248 174.692 C 216.878 172.971,217.004 165.746,216.437 163.828 C 214.498 157.271,214.674 157.754,213.076 154.600 C 210.834 150.176,210.119 149.011,207.514 145.542 C 206.021 143.554,204.800 141.764,204.800 141.564 C 204.800 141.364,204.665 141.199,204.500 141.197 C 204.335 141.196,203.750 140.531,203.200 139.720 C 202.650 138.909,201.836 137.875,201.390 137.423 C 200.062 136.073,198.400 133.758,198.400 133.256 C 198.400 130.199,209.417 119.635,215.000 117.339 C 215.989 116.932,216.798 116.465,216.799 116.300 C 216.799 116.135,217.565 115.997,218.500 115.994 C 219.435 115.991,220.470 115.803,220.800 115.576 C 221.365 115.189,223.326 115.265,227.600 115.840 M177.400 179.589 C 178.060 180.506,179.329 182.189,180.219 183.328 C 182.422 186.147,184.683 189.860,186.962 194.400 C 188.011 196.490,189.034 198.371,189.235 198.580 C 189.715 199.080,189.705 200.400,189.220 200.400 C 188.819 200.400,186.800 197.927,186.800 197.436 C 186.800 197.277,186.350 196.557,185.800 195.836 C 185.250 195.114,184.800 194.409,184.800 194.268 C 184.800 194.126,183.844 192.613,182.676 190.905 C 181.507 189.197,180.040 186.770,179.416 185.511 C 178.792 184.253,177.946 182.864,177.537 182.425 C 176.075 180.855,173.623 177.087,173.837 176.740 C 174.167 176.206,176.048 177.709,177.400 179.589 " stroke="none" fill="#f4f4f4" fill-rule="evenodd"></path><path id="path2" d="M255.374 14.700 C 255.242 15.305,255.034 16.070,254.914 16.400 C 254.793 16.730,254.636 17.447,254.564 17.994 C 254.345 19.674,251.240 24.752,248.851 27.337 C 246.330 30.066,239.975 34.222,234.689 36.600 C 231.284 38.132,221.928 42.919,220.682 43.767 C 219.847 44.335,219.058 44.800,218.927 44.800 C 218.796 44.800,217.499 45.761,216.045 46.936 C 214.590 48.111,211.330 50.616,208.800 52.503 C 201.092 58.251,195.930 64.235,192.369 71.549 C 189.596 77.246,191.215 83.508,196.419 87.213 C 198.156 88.450,198.151 87.530,196.406 84.960 C 194.264 81.803,193.885 77.024,195.585 74.600 C 195.740 74.380,196.113 73.570,196.415 72.800 C 197.529 69.958,207.238 60.914,213.652 56.744 C 214.890 55.939,216.014 55.101,216.149 54.883 C 216.283 54.665,217.520 53.916,218.897 53.218 C 220.274 52.521,222.570 51.312,224.000 50.532 C 225.430 49.753,228.400 48.174,230.600 47.024 C 244.891 39.555,249.812 35.426,253.347 27.938 C 256.047 22.221,257.802 13.600,256.265 13.600 C 255.881 13.600,255.517 14.050,255.374 14.700 M250.000 42.200 C 250.000 42.530,249.820 42.800,249.600 42.800 C 249.380 42.800,249.200 43.045,249.200 43.345 C 249.200 44.451,245.532 52.790,244.250 54.598 C 243.782 55.257,243.062 56.427,242.649 57.198 C 242.004 58.402,238.788 63.219,234.772 69.000 C 234.161 69.880,232.547 71.662,231.187 72.960 C 229.189 74.865,228.832 75.386,229.331 75.665 C 230.052 76.069,233.488 75.298,234.431 74.520 C 235.749 73.435,236.530 73.858,236.237 75.500 C 235.442 79.953,235.722 86.219,236.787 87.800 C 236.935 88.020,237.298 89.010,237.595 90.000 C 238.563 93.234,243.477 99.502,244.326 98.586 C 244.477 98.423,244.375 98.210,244.100 98.112 C 243.825 98.014,243.600 97.740,243.600 97.504 C 243.600 97.269,243.150 96.486,242.600 95.764 C 242.050 95.043,241.600 94.340,241.600 94.202 C 241.600 94.064,241.165 93.017,240.633 91.875 C 237.237 84.584,238.077 74.122,242.551 68.011 C 244.533 65.304,246.429 61.287,247.747 57.000 C 248.768 53.683,250.703 41.600,250.214 41.600 C 250.096 41.600,250.000 41.870,250.000 42.200 M196.369 105.075 C 194.736 106.326,193.158 107.591,192.862 107.884 C 192.566 108.178,191.828 108.675,191.222 108.989 C 189.789 109.730,182.110 117.790,179.357 121.444 C 178.178 123.009,176.075 125.529,174.685 127.044 C 172.430 129.502,169.066 133.730,166.499 137.335 C 166.003 138.031,165.148 139.230,164.599 140.000 C 163.264 141.872,160.976 144.970,158.900 147.717 C 157.965 148.954,157.200 150.094,157.200 150.251 C 157.200 150.408,156.954 150.821,156.653 151.169 C 154.322 153.861,151.007 162.035,150.408 166.566 C 149.658 172.242,150.233 174.318,153.704 178.473 C 154.865 179.863,156.288 181.720,156.866 182.600 C 157.444 183.480,158.855 185.190,160.002 186.400 C 163.124 189.696,170.063 197.963,171.599 200.218 C 173.701 203.304,182.000 212.593,182.000 211.861 C 182.000 211.687,181.493 210.792,180.874 209.872 C 180.255 208.952,179.236 207.309,178.610 206.220 C 177.432 204.170,175.520 201.540,174.101 200.017 C 173.652 199.535,171.421 196.459,169.143 193.181 C 166.864 189.903,164.589 186.631,164.087 185.910 C 163.584 185.190,162.923 184.299,162.618 183.932 C 162.312 183.564,161.839 182.844,161.566 182.332 C 161.293 181.819,160.857 181.220,160.598 181.000 C 160.338 180.780,158.883 178.800,157.363 176.600 L 154.600 172.600 154.624 168.400 C 154.642 165.238,154.814 163.903,155.321 163.000 C 155.692 162.340,155.996 161.592,155.998 161.338 C 155.999 161.084,156.383 160.094,156.850 159.138 C 157.318 158.182,157.830 157.130,157.989 156.800 C 160.709 151.155,162.785 147.710,165.101 145.000 C 165.853 144.120,168.447 140.880,170.865 137.800 C 173.283 134.720,175.922 131.407,176.731 130.437 C 177.539 129.468,178.456 128.298,178.770 127.837 C 179.083 127.377,179.983 126.264,180.770 125.364 C 181.556 124.465,182.855 122.935,183.655 121.964 C 184.455 120.994,186.500 118.580,188.200 116.600 C 189.900 114.620,192.419 111.650,193.798 110.000 C 195.178 108.350,197.407 106.117,198.753 105.038 C 201.528 102.812,201.536 102.800,200.269 102.800 C 199.752 102.800,198.019 103.811,196.369 105.075 M220.939 115.506 C 220.685 115.668,221.825 115.808,223.472 115.817 C 225.119 115.826,226.136 115.704,225.733 115.545 C 224.760 115.162,221.521 115.135,220.939 115.506 M268.899 120.978 C 269.503 121.293,270.223 121.668,270.499 121.810 C 270.774 121.953,270.550 121.698,270.000 121.244 C 269.450 120.789,268.730 120.415,268.400 120.411 C 268.070 120.408,268.294 120.663,268.899 120.978 M273.324 129.800 C 273.326 131.120,273.401 131.612,273.490 130.893 C 273.579 130.174,273.577 129.094,273.486 128.493 C 273.395 127.892,273.322 128.480,273.324 129.800 M200.719 129.203 C 199.842 130.743,200.102 130.742,201.200 129.200 C 201.670 128.540,201.907 128.001,201.727 128.003 C 201.547 128.004,201.093 128.544,200.719 129.203 M198.667 132.267 C 198.305 132.628,198.328 133.908,198.700 134.138 C 198.865 134.240,199.000 133.801,199.000 133.162 C 199.000 132.523,198.985 132.000,198.967 132.000 C 198.948 132.000,198.813 132.120,198.667 132.267 M206.048 143.600 C 206.755 144.480,207.405 145.200,207.493 145.200 C 207.801 145.200,205.396 142.017,205.081 142.009 C 204.906 142.004,205.341 142.720,206.048 143.600 M264.200 153.600 C 264.050 154.073,264.017 154.550,264.127 154.660 C 264.237 154.770,264.450 154.473,264.600 154.000 C 264.750 153.527,264.783 153.050,264.673 152.940 C 264.563 152.830,264.350 153.127,264.200 153.600 M263.654 156.200 C 263.619 156.640,263.489 157.450,263.367 158.000 C 263.175 158.863,263.207 158.903,263.598 158.290 C 263.847 157.899,263.977 157.089,263.886 156.490 C 263.778 155.779,263.697 155.679,263.654 156.200 M262.914 161.000 C 262.917 162.100,262.995 162.503,263.087 161.895 C 263.179 161.286,263.177 160.386,263.082 159.895 C 262.987 159.403,262.911 159.900,262.914 161.000 M173.837 176.740 C 173.623 177.087,176.075 180.855,177.537 182.425 C 177.946 182.864,178.792 184.253,179.416 185.511 C 180.040 186.770,181.507 189.197,182.676 190.905 C 183.844 192.613,184.800 194.126,184.800 194.268 C 184.800 194.409,185.250 195.114,185.800 195.836 C 186.350 196.557,186.800 197.277,186.800 197.436 C 186.800 197.927,188.819 200.400,189.220 200.400 C 189.705 200.400,189.715 199.080,189.235 198.580 C 189.034 198.371,188.011 196.490,186.962 194.400 C 184.683 189.860,182.422 186.147,180.219 183.328 C 179.329 182.189,178.060 180.506,177.400 179.589 C 176.048 177.709,174.167 176.206,173.837 176.740 M263.552 183.287 C 263.737 184.398,263.793 184.455,263.919 183.654 C 264.001 183.133,263.903 182.543,263.701 182.341 C 263.479 182.119,263.421 182.493,263.552 183.287 M272.879 207.209 C 273.339 208.315,273.802 209.132,273.909 209.025 C 274.115 208.818,272.518 205.200,272.220 205.200 C 272.123 205.200,272.420 206.104,272.879 207.209 M199.665 208.217 C 198.995 209.688,199.123 210.002,199.847 208.665 C 200.186 208.040,200.388 207.454,200.296 207.363 C 200.205 207.271,199.921 207.656,199.665 208.217 M196.501 220.200 C 196.505 221.080,196.587 221.393,196.683 220.895 C 196.779 220.398,196.775 219.678,196.675 219.295 C 196.575 218.913,196.496 219.320,196.501 220.200 M196.124 226.600 C 196.126 227.920,196.201 228.412,196.290 227.693 C 196.379 226.974,196.377 225.894,196.286 225.293 C 196.195 224.692,196.122 225.280,196.124 226.600 M196.520 232.800 C 196.520 234.010,196.595 234.505,196.687 233.900 C 196.778 233.295,196.778 232.305,196.687 231.700 C 196.595 231.095,196.520 231.590,196.520 232.800 M276.462 236.600 C 276.422 237.260,276.289 238.250,276.167 238.800 C 275.976 239.660,276.008 239.701,276.396 239.093 C 276.644 238.704,276.777 237.714,276.691 236.893 C 276.556 235.604,276.525 235.564,276.462 236.600 M275.654 241.600 C 275.619 242.150,275.496 243.050,275.383 243.600 L 275.177 244.600 275.607 243.615 C 275.843 243.074,275.965 242.174,275.878 241.615 L 275.720 240.600 275.654 241.600 M273.654 250.867 C 273.625 251.234,273.484 251.864,273.341 252.267 C 273.141 252.833,273.195 252.896,273.575 252.546 C 273.846 252.297,273.987 251.667,273.888 251.146 C 273.790 250.626,273.684 250.500,273.654 250.867 M269.952 266.313 C 269.821 267.107,269.879 267.481,270.101 267.259 C 270.303 267.057,270.401 266.467,270.319 265.946 C 270.193 265.145,270.137 265.202,269.952 266.313 M218.406 293.833 C 218.409 294.255,218.595 294.870,218.818 295.200 C 219.115 295.638,219.152 295.476,218.956 294.600 C 218.627 293.129,218.398 292.810,218.406 293.833 M264.467 297.250 C 264.430 297.828,264.305 298.907,264.189 299.650 C 263.996 300.886,264.015 300.917,264.408 300.014 C 264.645 299.471,264.770 298.391,264.686 297.614 C 264.577 296.592,264.516 296.491,264.467 297.250 M219.612 298.800 C 219.612 299.130,219.787 299.670,220.000 300.000 C 220.345 300.533,220.388 300.533,220.388 300.000 C 220.388 299.670,220.213 299.130,220.000 298.800 C 219.655 298.267,219.612 298.267,219.612 298.800 M263.734 306.000 C 263.734 307.650,263.805 308.325,263.891 307.500 C 263.978 306.675,263.978 305.325,263.891 304.500 C 263.805 303.675,263.734 304.350,263.734 306.000 M262.924 317.400 C 262.926 318.720,263.001 319.212,263.090 318.493 C 263.179 317.774,263.177 316.694,263.086 316.093 C 262.995 315.492,262.922 316.080,262.924 317.400 M264.244 332.200 C 264.573 333.671,264.802 333.990,264.794 332.967 C 264.791 332.545,264.605 331.930,264.382 331.600 C 264.085 331.162,264.048 331.324,264.244 332.200 M209.200 348.400 C 208.730 349.060,208.436 349.600,208.546 349.600 C 208.656 349.600,209.130 349.060,209.600 348.400 C 210.070 347.740,210.364 347.200,210.254 347.200 C 210.144 347.200,209.670 347.740,209.200 348.400 M207.351 350.900 C 206.170 352.248,205.480 353.200,205.684 353.200 C 205.784 353.200,206.445 352.480,207.152 351.600 C 208.525 349.892,208.664 349.401,207.351 350.900 M275.200 361.000 C 275.881 361.990,276.513 362.800,276.604 362.800 C 276.915 362.800,274.600 359.225,274.281 359.213 C 274.105 359.206,274.519 360.010,275.200 361.000 M184.800 367.000 C 184.250 367.314,183.980 367.572,184.200 367.572 C 184.420 367.572,185.050 367.314,185.600 367.000 C 186.150 366.686,186.420 366.428,186.200 366.428 C 185.980 366.428,185.350 366.686,184.800 367.000 M156.600 374.400 L 155.800 374.744 156.600 374.766 C 157.040 374.778,157.670 374.613,158.000 374.400 C 158.795 373.886,157.796 373.886,156.600 374.400 M151.200 375.218 C 150.762 375.515,150.924 375.552,151.800 375.356 C 153.271 375.027,153.590 374.798,152.567 374.806 C 152.145 374.809,151.530 374.995,151.200 375.218 M143.621 375.979 C 143.246 376.216,143.670 376.265,144.821 376.118 C 145.799 375.992,146.675 375.825,146.767 375.745 C 147.142 375.419,144.155 375.640,143.621 375.979 M116.000 378.809 C 115.589 379.080,116.157 379.124,117.800 378.947 C 119.120 378.805,120.275 378.624,120.367 378.544 C 120.768 378.196,116.539 378.452,116.000 378.809 M291.781 379.919 C 292.651 380.844,293.492 381.600,293.650 381.600 C 293.970 381.600,292.161 379.726,290.966 378.819 C 290.545 378.499,290.912 378.994,291.781 379.919 M107.400 379.580 C 106.935 379.768,107.773 379.826,109.400 379.719 C 113.058 379.478,113.616 379.264,110.600 379.260 C 109.280 379.258,107.840 379.402,107.400 379.580 M84.200 382.390 C 83.717 382.592,84.351 382.638,85.800 382.507 C 87.120 382.387,88.275 382.224,88.367 382.145 C 88.707 381.849,84.970 382.069,84.200 382.390 M67.200 385.206 C 66.778 385.482,67.015 385.523,68.000 385.342 C 69.725 385.025,70.051 384.798,68.767 384.806 C 68.235 384.809,67.530 384.989,67.200 385.206 M312.800 395.355 C 312.800 395.631,315.621 397.312,315.794 397.139 C 315.878 397.055,315.238 396.580,314.373 396.082 C 313.508 395.584,312.800 395.257,312.800 395.355 M28.165 399.011 C 27.573 399.787,27.159 400.487,27.244 400.567 C 27.330 400.646,27.893 400.012,28.496 399.156 C 29.865 397.214,29.618 397.106,28.165 399.011 M326.833 404.130 C 326.925 404.201,327.630 404.666,328.400 405.163 L 329.800 406.066 328.600 405.035 C 327.940 404.468,327.235 404.003,327.033 404.002 C 326.832 404.001,326.742 404.058,326.833 404.130 M45.541 411.701 C 45.743 411.903,46.333 412.001,46.854 411.919 C 47.655 411.793,47.598 411.737,46.487 411.552 C 45.693 411.421,45.319 411.479,45.541 411.701 M49.600 412.400 C 49.930 412.613,50.650 412.773,51.200 412.754 L 52.200 412.720 51.200 412.400 C 49.658 411.906,48.836 411.906,49.600 412.400 M70.500 415.476 C 70.885 415.576,71.515 415.576,71.900 415.476 C 72.285 415.375,71.970 415.293,71.200 415.293 C 70.430 415.293,70.115 415.375,70.500 415.476 M77.800 415.998 C 78.558 416.326,82.720 416.561,82.367 416.256 C 82.275 416.177,81.030 416.008,79.600 415.882 C 77.990 415.740,77.305 415.784,77.800 415.998 M106.446 416.837 C 106.751 417.030,107.810 417.176,108.800 417.162 C 110.933 417.132,110.555 416.940,107.846 416.676 C 106.642 416.559,106.105 416.621,106.446 416.837 M113.507 417.490 C 114.226 417.579,115.306 417.577,115.907 417.486 C 116.508 417.395,115.920 417.322,114.600 417.324 C 113.280 417.326,112.788 417.401,113.507 417.490 M347.400 431.600 C 346.629 431.931,346.631 431.945,347.476 431.972 C 347.958 431.987,348.464 431.820,348.600 431.600 C 348.892 431.127,348.501 431.127,347.400 431.600 M323.200 435.200 L 322.200 435.520 323.200 435.554 C 323.750 435.573,324.470 435.413,324.800 435.200 C 325.564 434.706,324.742 434.706,323.200 435.200 M317.000 436.000 C 315.981 436.438,317.032 436.438,318.400 436.000 C 319.204 435.743,319.243 435.677,318.600 435.668 C 318.160 435.662,317.440 435.811,317.000 436.000 M312.905 436.687 C 313.514 436.779,314.414 436.777,314.905 436.682 C 315.397 436.587,314.900 436.511,313.800 436.514 C 312.700 436.517,312.297 436.595,312.905 436.687 M307.905 437.483 C 308.402 437.579,309.122 437.575,309.505 437.475 C 309.887 437.375,309.480 437.296,308.600 437.301 C 307.720 437.305,307.407 437.387,307.905 437.483 M297.400 438.800 C 296.686 439.107,296.715 439.147,297.676 439.172 C 298.268 439.187,298.864 439.020,299.000 438.800 C 299.295 438.322,298.511 438.322,297.400 438.800 M289.105 439.883 C 289.602 439.979,290.322 439.975,290.705 439.875 C 291.087 439.775,290.680 439.696,289.800 439.701 C 288.920 439.705,288.607 439.787,289.105 439.883 M266.400 441.600 L 265.000 441.895 266.800 441.941 C 267.790 441.967,268.870 441.813,269.200 441.600 C 269.922 441.134,268.616 441.134,266.400 441.600 M111.800 442.400 C 112.240 442.589,112.960 442.738,113.400 442.732 C 114.043 442.723,114.004 442.657,113.200 442.400 C 111.832 441.962,110.781 441.962,111.800 442.400 M253.600 442.400 C 252.219 442.691,252.225 442.695,254.000 442.700 C 254.990 442.703,256.340 442.568,257.000 442.400 C 258.683 441.972,255.635 441.972,253.600 442.400 M117.507 443.090 C 118.226 443.179,119.306 443.177,119.907 443.086 C 120.508 442.995,119.920 442.922,118.600 442.924 C 117.280 442.926,116.788 443.001,117.507 443.090 M122.905 443.487 C 123.514 443.579,124.414 443.577,124.905 443.482 C 125.397 443.387,124.900 443.311,123.800 443.314 C 122.700 443.317,122.297 443.395,122.905 443.487 M132.305 443.883 C 132.802 443.979,133.522 443.975,133.905 443.875 C 134.287 443.775,133.880 443.696,133.000 443.701 C 132.120 443.705,131.807 443.787,132.305 443.883 M224.300 443.896 C 225.675 443.974,227.925 443.974,229.300 443.896 C 230.675 443.818,229.550 443.754,226.800 443.754 C 224.050 443.754,222.925 443.818,224.300 443.896 M143.400 444.414 C 144.161 444.728,155.516 444.960,155.167 444.654 C 155.075 444.574,152.210 444.413,148.800 444.296 C 145.390 444.180,142.960 444.233,143.400 444.414 M205.905 444.283 C 206.402 444.379,207.122 444.375,207.505 444.275 C 207.887 444.175,207.480 444.096,206.600 444.101 C 205.720 444.105,205.407 444.187,205.905 444.283 M162.105 444.687 C 162.714 444.779,163.614 444.777,164.105 444.682 C 164.597 444.587,164.100 444.511,163.000 444.514 C 161.900 444.517,161.497 444.595,162.105 444.687 M192.500 444.694 C 193.545 444.776,195.255 444.776,196.300 444.694 C 197.345 444.612,196.490 444.544,194.400 444.544 C 192.310 444.544,191.455 444.612,192.500 444.694 " stroke="none" fill="#d3d4d4" fill-rule="evenodd"></path><path id="path3" d="M222.300 115.882 C 222.795 115.978,223.605 115.978,224.100 115.882 C 224.595 115.787,224.190 115.709,223.200 115.709 C 222.210 115.709,221.805 115.787,222.300 115.882 M217.600 116.418 C 217.162 116.715,217.324 116.752,218.200 116.556 C 219.671 116.227,219.990 115.998,218.967 116.006 C 218.545 116.009,217.930 116.195,217.600 116.418 M226.833 116.143 C 226.925 116.221,227.630 116.401,228.400 116.542 C 229.385 116.723,229.622 116.682,229.200 116.406 C 228.658 116.050,226.437 115.803,226.833 116.143 M231.146 117.416 C 231.886 117.737,232.606 117.994,232.746 117.986 C 233.266 117.957,230.976 116.828,230.400 116.830 C 230.070 116.831,230.406 117.094,231.146 117.416 M262.200 119.996 C 261.702 120.208,262.231 120.251,263.600 120.112 C 264.810 119.989,265.875 119.823,265.967 119.744 C 266.311 119.447,262.967 119.670,262.200 119.996 M208.400 121.492 C 206.682 122.821,203.049 126.575,201.908 128.200 C 201.445 128.860,202.131 128.240,203.433 126.822 C 205.756 124.292,207.209 122.888,209.200 121.250 C 210.675 120.036,210.030 120.231,208.400 121.492 M239.578 122.200 C 240.355 122.860,242.309 124.615,243.920 126.101 C 246.635 128.604,248.400 129.262,248.400 127.772 C 248.400 127.662,248.068 127.749,247.663 127.967 C 247.067 128.285,246.586 128.050,245.163 126.746 C 242.903 124.674,239.578 121.881,238.782 121.385 C 238.442 121.173,238.800 121.540,239.578 122.200 M268.433 120.930 C 268.525 121.001,269.230 121.466,270.000 121.963 L 271.400 122.866 270.200 121.835 C 269.540 121.268,268.835 120.803,268.633 120.802 C 268.432 120.801,268.342 120.858,268.433 120.930 M253.546 123.714 C 252.527 124.421,251.087 125.503,250.346 126.117 C 249.606 126.732,250.530 126.204,252.400 124.944 C 256.499 122.182,256.213 122.397,255.767 122.414 C 255.565 122.422,254.566 123.007,253.546 123.714 M271.911 124.374 C 272.282 125.020,272.640 125.493,272.707 125.426 C 272.924 125.209,271.883 123.200,271.554 123.200 C 271.380 123.200,271.540 123.728,271.911 124.374 M272.901 127.800 C 272.905 128.680,272.987 128.993,273.083 128.495 C 273.179 127.998,273.175 127.278,273.075 126.895 C 272.975 126.513,272.896 126.920,272.901 127.800 M200.093 130.700 C 199.057 132.196,198.721 132.800,198.923 132.800 C 199.017 132.800,199.570 132.080,200.153 131.200 C 201.336 129.412,201.284 128.979,200.093 130.700 M272.909 131.600 C 272.909 132.590,272.987 132.995,273.082 132.500 C 273.178 132.005,273.178 131.195,273.082 130.700 C 272.987 130.205,272.909 130.610,272.909 131.600 M198.800 133.466 C 198.800 133.674,199.250 134.455,199.800 135.200 C 200.350 135.945,200.800 136.438,200.800 136.295 C 200.800 136.153,200.350 135.372,199.800 134.562 C 199.250 133.751,198.800 133.259,198.800 133.466 M272.200 135.200 C 272.050 135.673,272.017 136.150,272.127 136.260 C 272.237 136.370,272.450 136.073,272.600 135.600 C 272.750 135.127,272.783 134.650,272.673 134.540 C 272.563 134.430,272.350 134.727,272.200 135.200 M202.383 138.300 C 203.126 139.235,203.806 140.000,203.894 140.000 C 204.177 140.000,202.463 137.749,201.735 137.164 C 201.348 136.854,201.640 137.365,202.383 138.300 M270.465 140.217 C 269.795 141.688,269.923 142.002,270.647 140.665 C 270.986 140.040,271.188 139.454,271.096 139.363 C 271.005 139.271,270.721 139.656,270.465 140.217 M268.200 144.800 C 267.859 145.460,267.669 146.000,267.779 146.000 C 267.889 146.000,268.259 145.460,268.600 144.800 C 268.941 144.140,269.131 143.600,269.021 143.600 C 268.911 143.600,268.541 144.140,268.200 144.800 M209.677 148.500 C 210.811 150.315,211.917 151.980,212.135 152.200 C 212.678 152.748,210.539 148.990,209.118 146.900 C 207.152 144.010,207.507 145.025,209.677 148.500 M264.446 151.667 C 264.421 152.034,264.296 152.664,264.170 153.067 C 263.952 153.762,263.963 153.763,264.397 153.087 C 264.648 152.696,264.773 152.066,264.673 151.687 C 264.511 151.068,264.488 151.066,264.446 151.667 M214.014 156.054 C 214.006 156.194,214.263 156.914,214.584 157.654 C 214.906 158.394,215.169 158.730,215.170 158.400 C 215.172 157.824,214.043 155.534,214.014 156.054 M262.215 163.415 C 262.061 164.654,262.017 165.750,262.119 165.852 C 262.220 165.954,262.430 165.023,262.585 163.785 C 262.739 162.546,262.783 161.450,262.681 161.348 C 262.580 161.246,262.370 162.177,262.215 163.415 M216.946 169.000 C 216.947 171.200,217.014 172.049,217.095 170.887 C 217.176 169.724,217.176 167.924,217.093 166.887 C 217.011 165.849,216.945 166.800,216.946 169.000 M216.200 175.200 C 216.050 175.673,216.017 176.150,216.127 176.260 C 216.237 176.370,216.450 176.073,216.600 175.600 C 216.750 175.127,216.783 174.650,216.673 174.540 C 216.563 174.430,216.350 174.727,216.200 175.200 M262.077 175.200 C 262.067 175.750,262.203 177.010,262.380 178.000 L 262.700 179.800 262.703 178.200 C 262.704 177.320,262.568 176.060,262.400 175.400 C 262.123 174.313,262.093 174.294,262.077 175.200 M215.291 178.500 C 214.610 180.384,214.704 180.894,215.426 179.230 C 215.753 178.477,215.966 177.699,215.901 177.502 C 215.835 177.305,215.560 177.754,215.291 178.500 M262.856 181.600 C 262.856 181.930,263.011 182.560,263.200 183.000 C 263.417 183.504,263.544 183.578,263.544 183.200 C 263.544 182.870,263.389 182.240,263.200 181.800 C 262.983 181.296,262.856 181.222,262.856 181.600 M263.633 184.800 C 263.621 185.130,263.867 186.210,264.179 187.200 C 264.491 188.190,264.756 188.730,264.767 188.400 C 264.779 188.070,264.533 186.990,264.221 186.000 C 263.909 185.010,263.644 184.470,263.633 184.800 M211.262 188.062 C 210.113 190.213,210.382 190.482,211.569 188.369 C 212.071 187.477,212.405 186.671,212.312 186.579 C 212.219 186.486,211.746 187.153,211.262 188.062 M266.414 193.654 C 266.406 193.794,266.663 194.514,266.984 195.254 C 267.306 195.994,267.569 196.330,267.570 196.000 C 267.572 195.424,266.443 193.134,266.414 193.654 M207.414 195.035 C 207.041 195.604,206.805 196.138,206.889 196.222 C 206.973 196.307,207.358 195.841,207.744 195.188 C 208.606 193.728,208.348 193.609,207.414 195.035 M269.209 200.111 C 269.194 200.619,271.637 205.296,271.821 205.112 C 271.914 205.020,271.366 203.786,270.604 202.372 C 269.842 200.957,269.214 199.940,269.209 200.111 M202.119 203.700 C 201.151 205.494,200.408 207.200,200.594 207.200 C 200.679 207.200,201.297 206.120,201.968 204.800 C 203.232 202.313,203.356 201.407,202.119 203.700 M273.616 209.454 C 273.607 209.704,273.863 210.514,274.184 211.254 C 274.506 211.994,274.776 212.396,274.784 212.146 C 274.793 211.896,274.537 211.086,274.216 210.346 C 273.894 209.606,273.624 209.204,273.616 209.454 M197.849 214.215 C 197.712 214.573,197.615 215.166,197.634 215.533 C 197.653 215.900,197.827 215.669,198.021 215.020 C 198.398 213.758,198.265 213.133,197.849 214.215 M275.687 216.200 C 275.691 216.640,275.832 217.540,276.000 218.200 C 276.274 219.278,276.306 219.298,276.313 218.400 C 276.317 217.850,276.176 216.950,276.000 216.400 C 275.749 215.616,275.681 215.573,275.687 216.200 M197.050 218.050 C 196.717 219.717,197.040 220.040,197.400 218.400 C 197.552 217.709,197.593 217.059,197.491 216.958 C 197.389 216.856,197.191 217.347,197.050 218.050 M276.520 222.400 C 276.520 223.610,276.595 224.105,276.687 223.500 C 276.778 222.895,276.778 221.905,276.687 221.300 C 276.595 220.695,276.520 221.190,276.520 222.400 M196.553 226.200 C 196.553 228.840,196.618 229.868,196.697 228.484 C 196.775 227.101,196.774 224.941,196.695 223.684 C 196.616 222.428,196.552 223.560,196.553 226.200 M276.909 227.200 C 276.909 228.190,276.987 228.595,277.082 228.100 C 277.178 227.605,277.178 226.795,277.082 226.300 C 276.987 225.805,276.909 226.210,276.909 227.200 M276.531 233.000 C 276.533 234.540,276.605 235.121,276.692 234.291 C 276.779 233.461,276.777 232.201,276.689 231.491 C 276.600 230.781,276.529 231.460,276.531 233.000 M196.828 234.033 C 196.844 234.565,197.019 235.360,197.219 235.800 C 197.471 236.358,197.507 236.115,197.338 235.000 C 197.055 233.143,196.787 232.636,196.828 234.033 M198.418 241.254 C 198.408 241.614,198.663 242.514,198.984 243.254 C 199.740 244.994,199.758 244.273,199.012 242.200 C 198.695 241.320,198.427 240.894,198.418 241.254 M274.449 246.000 C 274.416 246.330,274.289 247.050,274.167 247.600 C 273.975 248.464,274.007 248.503,274.399 247.888 C 274.648 247.497,274.775 246.777,274.681 246.288 C 274.586 245.800,274.482 245.670,274.449 246.000 M273.049 251.815 C 272.912 252.173,272.815 252.766,272.834 253.133 C 272.853 253.500,273.027 253.269,273.221 252.620 C 273.598 251.358,273.465 250.733,273.049 251.815 M271.646 257.667 C 271.621 258.034,271.496 258.664,271.370 259.067 C 271.152 259.762,271.163 259.763,271.597 259.087 C 271.848 258.696,271.973 258.066,271.873 257.687 C 271.711 257.068,271.688 257.066,271.646 257.667 M206.800 259.933 C 206.800 260.117,206.935 260.402,207.100 260.567 C 207.265 260.731,207.705 261.616,208.078 262.533 C 208.450 263.450,208.765 263.990,208.778 263.733 C 208.806 263.135,207.298 259.600,207.014 259.600 C 206.896 259.600,206.800 259.750,206.800 259.933 M270.860 260.867 C 270.827 261.454,270.696 262.264,270.570 262.667 C 270.352 263.360,270.365 263.361,270.795 262.690 C 271.046 262.299,271.177 261.489,271.086 260.890 L 270.920 259.800 270.860 260.867 M269.429 267.029 C 269.281 267.615,269.238 268.172,269.332 268.266 C 269.427 268.360,269.624 267.958,269.771 267.371 C 269.919 266.785,269.962 266.228,269.868 266.134 C 269.773 266.040,269.576 266.442,269.429 267.029 M268.629 270.629 C 268.481 271.215,268.438 271.772,268.532 271.866 C 268.627 271.960,268.824 271.558,268.971 270.971 C 269.119 270.385,269.162 269.828,269.068 269.734 C 268.973 269.640,268.776 270.042,268.629 270.629 M211.216 270.254 C 211.207 270.504,211.463 271.314,211.784 272.054 C 212.106 272.794,212.376 273.196,212.384 272.946 C 212.393 272.696,212.137 271.886,211.816 271.146 C 211.494 270.406,211.224 270.004,211.216 270.254 M268.046 273.267 C 268.021 273.634,267.896 274.264,267.770 274.667 C 267.552 275.362,267.563 275.363,267.997 274.687 C 268.248 274.296,268.373 273.666,268.273 273.287 C 268.111 272.668,268.088 272.666,268.046 273.267 M267.293 276.800 C 267.293 277.570,267.375 277.885,267.476 277.500 C 267.576 277.115,267.576 276.485,267.476 276.100 C 267.375 275.715,267.293 276.030,267.293 276.800 M214.000 278.150 C 214.000 278.822,215.703 283.630,215.879 283.454 C 215.986 283.347,215.674 282.121,215.185 280.730 C 214.322 278.269,214.000 277.569,214.000 278.150 M266.629 279.829 C 266.481 280.415,266.438 280.972,266.532 281.066 C 266.627 281.160,266.824 280.758,266.971 280.171 C 267.119 279.585,267.162 279.028,267.068 278.934 C 266.973 278.840,266.776 279.242,266.629 279.829 M265.800 284.400 C 265.646 285.310,265.611 286.144,265.721 286.254 C 265.831 286.364,266.046 285.710,266.200 284.800 C 266.354 283.890,266.389 283.056,266.279 282.946 C 266.169 282.836,265.954 283.490,265.800 284.400 M265.055 289.455 C 264.913 290.486,264.874 291.408,264.969 291.502 C 265.063 291.596,265.265 290.839,265.418 289.818 C 265.571 288.798,265.610 287.876,265.504 287.771 C 265.398 287.665,265.196 288.423,265.055 289.455 M217.761 289.600 C 218.171 291.713,218.719 293.372,218.753 292.600 C 218.772 292.160,218.513 291.080,218.178 290.200 C 217.842 289.320,217.655 289.050,217.761 289.600 M218.856 294.000 C 218.856 294.330,219.011 294.960,219.200 295.400 C 219.417 295.904,219.544 295.978,219.544 295.600 C 219.544 295.270,219.389 294.640,219.200 294.200 C 218.983 293.696,218.856 293.622,218.856 294.000 M264.501 295.000 C 264.505 295.880,264.587 296.193,264.683 295.695 C 264.779 295.198,264.775 294.478,264.675 294.095 C 264.575 293.713,264.496 294.120,264.501 295.000 M219.606 297.433 C 219.609 297.855,219.795 298.470,220.018 298.800 C 220.315 299.238,220.352 299.076,220.156 298.200 C 219.827 296.729,219.598 296.410,219.606 297.433 M263.714 301.400 C 263.717 302.500,263.795 302.903,263.887 302.295 C 263.979 301.686,263.977 300.786,263.882 300.295 C 263.787 299.803,263.711 300.300,263.714 301.400 M220.559 306.400 C 220.559 309.590,220.621 310.895,220.697 309.300 C 220.773 307.705,220.773 305.095,220.697 303.500 C 220.621 301.905,220.559 303.210,220.559 306.400 M262.999 309.274 C 262.845 311.543,262.788 313.850,262.873 314.400 C 262.958 314.950,263.169 313.177,263.340 310.460 C 263.512 307.743,263.569 305.436,263.467 305.333 C 263.364 305.231,263.154 307.004,262.999 309.274 M219.815 317.015 C 219.661 318.254,219.624 319.357,219.734 319.467 C 219.844 319.577,220.061 318.654,220.215 317.415 C 220.370 316.177,220.407 315.073,220.297 314.963 C 220.187 314.853,219.970 315.777,219.815 317.015 M262.823 322.233 C 262.836 323.755,263.001 325.720,263.190 326.600 C 263.419 327.668,263.460 326.803,263.313 324.000 C 263.059 319.158,262.789 318.186,262.823 322.233 M219.249 322.200 C 219.216 322.640,219.096 323.450,218.983 324.000 L 218.777 325.000 219.206 324.019 C 219.442 323.479,219.561 322.669,219.472 322.219 C 219.313 321.421,219.307 321.421,219.249 322.200 M218.263 327.100 C 217.879 328.996,217.577 331.063,217.752 330.600 C 218.391 328.906,218.866 326.800,218.712 326.346 C 218.610 326.046,218.408 326.385,218.263 327.100 M263.682 329.800 C 263.665 330.680,263.910 332.480,264.226 333.800 C 264.789 336.149,264.796 336.157,264.548 334.200 C 263.873 328.861,263.715 328.061,263.682 329.800 M215.265 337.417 C 215.009 337.978,214.807 338.654,214.816 338.919 C 214.824 339.183,215.097 338.788,215.422 338.039 C 216.105 336.465,215.961 335.890,215.265 337.417 M264.828 337.476 C 264.918 338.515,265.544 339.396,265.572 338.524 C 265.587 338.042,265.420 337.536,265.200 337.400 C 264.980 337.264,264.813 337.298,264.828 337.476 M213.829 340.861 C 213.104 342.315,213.061 342.533,213.561 342.224 C 213.926 341.998,214.884 339.600,214.608 339.600 C 214.526 339.600,214.175 340.168,213.829 340.861 M265.612 340.400 C 265.612 340.730,265.787 341.270,266.000 341.600 C 266.345 342.133,266.388 342.133,266.388 341.600 C 266.388 341.270,266.213 340.730,266.000 340.400 C 265.655 339.867,265.612 339.867,265.612 340.400 M211.239 345.824 C 210.777 346.607,210.580 347.136,210.802 346.999 C 211.236 346.731,212.534 344.400,212.250 344.400 C 212.156 344.400,211.701 345.041,211.239 345.824 M208.048 350.400 C 207.341 351.280,206.906 351.996,207.081 351.991 C 207.396 351.983,209.801 348.800,209.493 348.800 C 209.405 348.800,208.755 349.520,208.048 350.400 M269.228 350.600 C 269.228 350.820,269.486 351.450,269.800 352.000 C 270.114 352.550,270.372 352.820,270.372 352.600 C 270.372 352.380,270.114 351.750,269.800 351.200 C 269.486 350.650,269.228 350.380,269.228 350.600 M203.800 355.141 C 202.260 356.641,200.641 358.064,200.203 358.304 C 199.765 358.544,199.529 358.862,199.678 359.011 C 199.827 359.160,201.536 357.739,203.475 355.852 C 205.414 353.966,206.910 352.420,206.800 352.418 C 206.690 352.415,205.340 353.641,203.800 355.141 M198.602 359.597 C 198.467 359.815,196.972 360.891,195.278 361.989 C 193.585 363.086,192.329 363.987,192.488 363.992 C 192.941 364.005,198.201 360.522,198.778 359.827 C 199.064 359.482,199.197 359.200,199.073 359.200 C 198.949 359.200,198.737 359.378,198.602 359.597 M277.599 364.855 C 278.720 366.536,280.013 368.246,280.471 368.655 C 280.930 369.065,280.426 368.217,279.352 366.770 C 275.988 362.239,275.490 361.695,277.599 364.855 M282.400 371.000 C 283.146 371.770,283.829 372.400,283.918 372.400 C 284.254 372.400,281.782 369.656,281.422 369.629 C 281.213 369.613,281.654 370.230,282.400 371.000 M174.800 370.800 C 174.267 371.145,174.267 371.188,174.800 371.188 C 175.130 371.188,175.670 371.013,176.000 370.800 C 176.533 370.455,176.533 370.412,176.000 370.412 C 175.670 370.412,175.130 370.587,174.800 370.800 M171.600 371.618 C 171.162 371.915,171.324 371.952,172.200 371.756 C 173.671 371.427,173.990 371.198,172.967 371.206 C 172.545 371.209,171.930 371.395,171.600 371.618 M166.600 372.800 C 165.493 373.082,165.477 373.109,166.400 373.147 C 166.950 373.169,167.670 373.013,168.000 372.800 C 168.681 372.360,168.329 372.360,166.600 372.800 M286.600 375.600 C 287.683 376.700,288.660 377.600,288.770 377.600 C 288.880 377.600,288.083 376.700,287.000 375.600 C 285.917 374.500,284.940 373.600,284.830 373.600 C 284.720 373.600,285.517 374.500,286.600 375.600 M158.000 374.418 C 157.562 374.715,157.724 374.752,158.600 374.556 C 160.071 374.227,160.390 373.998,159.367 374.006 C 158.945 374.009,158.330 374.195,158.000 374.418 M152.400 375.213 C 151.754 375.429,152.180 375.466,153.600 375.319 C 154.810 375.194,155.875 375.026,155.967 374.946 C 156.287 374.665,153.391 374.883,152.400 375.213 M147.700 375.887 C 148.305 375.978,149.295 375.978,149.900 375.887 C 150.505 375.795,150.010 375.720,148.800 375.720 C 147.590 375.720,147.095 375.795,147.700 375.887 M136.200 377.200 C 134.434 377.649,136.445 377.669,138.600 377.223 L 140.200 376.892 138.800 376.893 C 138.030 376.894,136.860 377.032,136.200 377.200 M127.400 378.013 C 126.690 378.201,127.506 378.241,129.400 378.112 C 131.160 377.991,132.675 377.826,132.767 377.746 C 133.080 377.471,128.603 377.694,127.400 378.013 M121.500 378.689 C 122.215 378.778,123.385 378.778,124.100 378.689 C 124.815 378.601,124.230 378.528,122.800 378.528 C 121.370 378.528,120.785 378.601,121.500 378.689 M291.400 380.000 C 292.259 380.880,293.052 381.600,293.162 381.600 C 293.272 381.600,292.659 380.880,291.800 380.000 C 290.941 379.120,290.148 378.400,290.038 378.400 C 289.928 378.400,290.541 379.120,291.400 380.000 M117.905 379.083 C 118.402 379.179,119.122 379.175,119.505 379.075 C 119.887 378.975,119.480 378.896,118.600 378.901 C 117.720 378.905,117.407 378.987,117.905 379.083 M113.700 379.487 C 114.305 379.578,115.295 379.578,115.900 379.487 C 116.505 379.395,116.010 379.320,114.800 379.320 C 113.590 379.320,113.095 379.395,113.700 379.487 M107.000 380.020 C 106.211 380.235,106.622 380.270,108.200 380.123 C 109.520 380.000,110.675 379.832,110.767 379.750 C 111.064 379.482,108.234 379.685,107.000 380.020 M99.800 380.811 C 99.072 381.002,99.702 381.041,101.400 380.909 C 102.940 380.789,104.275 380.625,104.367 380.545 C 104.673 380.278,101.016 380.491,99.800 380.811 M94.500 381.487 C 95.105 381.578,96.095 381.578,96.700 381.487 C 97.305 381.395,96.810 381.320,95.600 381.320 C 94.390 381.320,93.895 381.395,94.500 381.487 M294.400 382.539 C 294.950 383.166,295.940 384.046,296.600 384.495 L 297.800 385.312 296.600 384.189 C 295.940 383.572,294.950 382.691,294.400 382.233 L 293.400 381.400 294.400 382.539 M89.105 382.283 C 89.602 382.379,90.322 382.375,90.705 382.275 C 91.087 382.175,90.680 382.096,89.800 382.101 C 88.920 382.105,88.607 382.187,89.105 382.283 M83.800 382.800 C 82.722 383.074,82.702 383.106,83.600 383.113 C 84.150 383.117,85.050 382.976,85.600 382.800 C 86.944 382.369,85.492 382.369,83.800 382.800 M78.600 383.600 C 77.581 384.038,78.632 384.038,80.000 383.600 C 80.804 383.343,80.843 383.277,80.200 383.268 C 79.760 383.262,79.040 383.411,78.600 383.600 M75.105 384.283 C 75.602 384.379,76.322 384.375,76.705 384.275 C 77.087 384.175,76.680 384.096,75.800 384.101 C 74.920 384.105,74.607 384.187,75.105 384.283 M70.305 385.083 C 70.802 385.179,71.522 385.175,71.905 385.075 C 72.287 384.975,71.880 384.896,71.000 384.901 C 70.120 384.905,69.807 384.987,70.305 385.083 M67.000 385.600 C 66.496 385.817,66.422 385.944,66.800 385.944 C 67.130 385.944,67.760 385.789,68.200 385.600 C 68.704 385.383,68.778 385.256,68.400 385.256 C 68.070 385.256,67.440 385.411,67.000 385.600 M298.888 386.213 C 299.486 386.843,300.047 387.277,300.135 387.179 C 300.223 387.080,299.733 386.565,299.047 386.034 L 297.800 385.069 298.888 386.213 M63.200 386.400 C 62.405 386.914,63.404 386.914,64.600 386.400 L 65.400 386.056 64.600 386.034 C 64.160 386.022,63.530 386.187,63.200 386.400 M59.200 387.200 C 58.436 387.694,59.258 387.694,60.800 387.200 L 61.800 386.880 60.800 386.846 C 60.250 386.827,59.530 386.987,59.200 387.200 M301.869 388.509 C 303.960 390.191,304.614 390.505,303.000 389.052 C 302.120 388.260,301.251 387.609,301.069 387.606 C 300.887 387.603,301.247 388.009,301.869 388.509 M54.000 388.400 C 53.176 388.664,53.141 388.726,53.800 388.754 C 54.240 388.773,54.870 388.613,55.200 388.400 C 55.901 387.947,55.414 387.947,54.000 388.400 M43.504 391.315 C 42.241 391.769,41.277 392.210,41.361 392.294 C 41.445 392.379,42.839 391.995,44.457 391.441 C 46.076 390.888,47.040 390.447,46.600 390.463 C 46.160 390.478,44.767 390.861,43.504 391.315 M305.800 391.365 C 306.460 391.932,307.165 392.397,307.367 392.398 C 307.801 392.400,307.796 392.396,306.000 391.237 L 304.600 390.334 305.800 391.365 M35.800 394.191 C 34.700 394.709,33.980 395.137,34.200 395.142 C 34.420 395.147,35.500 394.727,36.600 394.209 C 37.700 393.691,38.420 393.263,38.200 393.258 C 37.980 393.253,36.900 393.673,35.800 394.191 M30.128 397.500 C 29.262 398.325,29.013 398.623,29.576 398.161 C 30.139 397.700,31.045 397.025,31.589 396.661 C 32.133 396.298,32.381 396.000,32.140 396.000 C 31.900 396.000,30.994 396.675,30.128 397.500 M314.800 396.917 C 314.800 397.007,315.700 397.640,316.800 398.324 C 317.900 399.007,318.800 399.439,318.800 399.283 C 318.799 399.128,317.899 398.495,316.800 397.877 C 315.700 397.259,314.800 396.827,314.800 396.917 M27.552 400.545 C 26.855 402.075,28.320 404.389,31.092 406.134 C 33.596 407.712,33.661 407.427,31.190 405.700 C 28.487 403.810,27.310 401.955,27.939 400.574 C 28.183 400.038,28.293 399.600,28.183 399.600 C 28.073 399.600,27.789 400.025,27.552 400.545 M321.669 401.355 C 324.490 403.248,326.000 404.123,326.000 403.867 C 326.000 403.645,319.681 399.600,319.333 399.600 C 319.178 399.600,320.229 400.390,321.669 401.355 M42.000 410.400 C 42.330 410.613,42.960 410.778,43.400 410.766 L 44.200 410.744 43.400 410.400 C 42.204 409.886,41.205 409.886,42.000 410.400 M336.400 410.582 C 336.400 410.671,337.210 411.290,338.200 411.958 C 339.190 412.626,340.000 413.043,340.000 412.884 C 340.000 412.724,339.190 412.105,338.200 411.507 C 337.210 410.909,336.400 410.493,336.400 410.582 M48.100 411.876 C 48.485 411.976,49.115 411.976,49.500 411.876 C 49.885 411.775,49.570 411.693,48.800 411.693 C 48.030 411.693,47.715 411.775,48.100 411.876 M55.800 413.190 C 56.564 413.528,59.114 413.757,58.767 413.456 C 58.675 413.376,57.790 413.204,56.800 413.073 C 55.598 412.914,55.266 412.953,55.800 413.190 M61.200 413.980 C 62.199 414.320,64.682 414.532,64.367 414.251 C 64.275 414.169,63.300 413.999,62.200 413.872 C 60.851 413.716,60.526 413.751,61.200 413.980 M341.482 414.041 C 342.025 414.715,345.600 417.346,345.600 417.073 C 345.600 416.976,344.565 416.119,343.300 415.170 C 342.035 414.221,341.217 413.713,341.482 414.041 M66.433 414.550 C 66.525 414.632,67.680 414.804,69.000 414.931 C 70.555 415.080,71.048 415.042,70.400 414.821 C 69.414 414.484,66.110 414.259,66.433 414.550 M73.491 415.489 C 74.201 415.577,75.461 415.579,76.291 415.492 C 77.121 415.405,76.540 415.333,75.000 415.331 C 73.460 415.329,72.781 415.400,73.491 415.489 M80.800 416.055 C 82.929 416.312,102.213 416.420,100.600 416.165 C 100.160 416.095,95.030 415.982,89.200 415.913 C 83.370 415.845,79.590 415.908,80.800 416.055 M108.800 416.817 C 110.010 416.984,111.720 417.113,112.600 417.104 C 113.983 417.090,113.901 417.046,112.000 416.783 C 110.790 416.616,109.080 416.487,108.200 416.496 C 106.817 416.510,106.899 416.554,108.800 416.817 M117.200 417.600 C 117.530 417.813,118.160 417.978,118.600 417.966 L 119.400 417.944 118.600 417.600 C 117.404 417.086,116.405 417.086,117.200 417.600 M346.364 417.735 C 346.949 418.463,349.200 420.177,349.200 419.894 C 349.200 419.806,348.435 419.126,347.500 418.383 C 346.565 417.640,346.054 417.348,346.364 417.735 M121.146 418.616 C 121.886 418.937,122.606 419.194,122.746 419.186 C 123.266 419.157,120.976 418.028,120.400 418.030 C 120.070 418.031,120.406 418.294,121.146 418.616 M123.533 419.681 C 124.277 420.631,123.806 421.772,122.085 423.191 C 121.278 423.856,120.748 424.400,120.908 424.400 C 122.680 424.400,124.921 420.507,123.700 419.549 C 123.070 419.055,123.053 419.068,123.533 419.681 M351.816 422.500 C 352.670 423.545,353.428 424.400,353.499 424.400 C 353.861 424.400,352.713 422.856,351.566 421.800 C 350.368 420.697,350.388 420.753,351.816 422.500 M112.800 427.600 C 112.267 427.945,112.267 427.988,112.800 427.988 C 113.130 427.988,113.670 427.813,114.000 427.600 C 114.533 427.255,114.533 427.212,114.000 427.212 C 113.670 427.212,113.130 427.387,112.800 427.600 M107.200 429.218 C 106.762 429.515,106.924 429.552,107.800 429.356 C 109.271 429.027,109.590 428.798,108.567 428.806 C 108.145 428.809,107.530 428.995,107.200 429.218 M351.800 429.810 C 350.920 430.352,350.380 430.796,350.600 430.796 C 351.084 430.797,353.600 429.296,353.600 429.006 C 353.600 428.709,353.559 428.727,351.800 429.810 M103.800 430.214 C 102.213 430.941,102.980 430.939,105.000 430.212 C 105.880 429.895,106.240 429.642,105.800 429.650 C 105.360 429.658,104.460 429.912,103.800 430.214 M341.200 432.400 C 339.843 432.686,339.837 432.695,341.000 432.707 C 341.660 432.715,342.650 432.576,343.200 432.400 C 344.512 431.980,343.196 431.980,341.200 432.400 M96.600 433.267 C 95.097 434.098,94.000 435.339,94.000 436.208 C 94.000 436.685,94.405 437.419,94.900 437.838 C 95.799 438.599,95.799 438.599,95.100 437.769 C 93.772 436.191,94.239 435.130,97.057 433.324 C 97.998 432.720,97.663 432.679,96.600 433.267 M335.800 433.200 L 334.600 433.505 335.800 433.513 C 336.460 433.517,337.450 433.376,338.000 433.200 L 339.000 432.880 338.000 432.887 C 337.450 432.891,336.460 433.032,335.800 433.200 M329.600 434.000 L 328.600 434.320 329.600 434.313 C 330.150 434.309,331.140 434.168,331.800 434.000 L 333.000 433.695 331.800 433.687 C 331.140 433.683,330.150 433.824,329.600 434.000 M325.505 434.683 C 326.002 434.779,326.722 434.775,327.105 434.675 C 327.487 434.575,327.080 434.496,326.200 434.501 C 325.320 434.505,325.007 434.587,325.505 434.683 M321.000 435.200 L 319.400 435.486 320.800 435.503 C 321.570 435.513,322.650 435.376,323.200 435.200 C 324.485 434.788,323.299 434.788,321.000 435.200 M315.000 436.000 L 313.800 436.305 315.000 436.325 C 315.660 436.335,316.560 436.189,317.000 436.000 L 317.800 435.656 317.000 435.675 C 316.560 435.686,315.660 435.832,315.000 436.000 M309.600 436.800 C 308.808 437.054,308.767 437.120,309.400 437.120 C 309.840 437.120,310.650 436.976,311.200 436.800 C 311.992 436.546,312.033 436.480,311.400 436.480 C 310.960 436.480,310.150 436.624,309.600 436.800 M303.600 437.613 C 302.954 437.829,303.380 437.866,304.800 437.719 C 306.010 437.594,307.075 437.426,307.167 437.346 C 307.487 437.065,304.591 437.283,303.600 437.613 M300.500 438.276 C 300.885 438.376,301.515 438.376,301.900 438.276 C 302.285 438.175,301.970 438.093,301.200 438.093 C 300.430 438.093,300.115 438.175,300.500 438.276 M295.400 438.800 L 293.800 439.086 295.200 439.115 C 295.970 439.131,296.960 438.989,297.400 438.800 C 298.343 438.395,297.662 438.395,295.400 438.800 M286.600 439.600 L 285.000 439.886 286.400 439.908 C 287.170 439.920,288.700 439.790,289.800 439.618 L 291.800 439.307 290.000 439.310 C 289.010 439.312,287.480 439.442,286.600 439.600 M101.000 440.400 C 102.196 440.914,103.195 440.914,102.400 440.400 C 102.070 440.187,101.440 440.022,101.000 440.034 L 100.200 440.056 101.000 440.400 M277.400 440.400 L 275.400 440.674 277.200 440.708 C 278.190 440.726,279.810 440.597,280.800 440.420 L 282.600 440.100 281.000 440.113 C 280.120 440.120,278.500 440.249,277.400 440.400 M104.100 441.076 C 104.485 441.176,105.115 441.176,105.500 441.076 C 105.885 440.975,105.570 440.893,104.800 440.893 C 104.030 440.893,103.715 440.975,104.100 441.076 M270.291 441.089 C 271.001 441.177,272.261 441.179,273.091 441.092 C 273.921 441.005,273.340 440.933,271.800 440.931 C 270.260 440.929,269.581 441.000,270.291 441.089 M107.000 441.604 C 107.767 441.930,111.111 442.153,110.767 441.856 C 110.675 441.777,109.610 441.611,108.400 441.488 C 107.031 441.349,106.502 441.392,107.000 441.604 M262.400 441.600 L 259.400 441.856 262.000 441.905 C 263.430 441.932,265.320 441.805,266.200 441.623 C 268.154 441.219,266.954 441.212,262.400 441.600 M113.200 442.384 C 114.180 442.714,117.895 442.942,117.567 442.653 C 117.475 442.572,116.230 442.403,114.800 442.277 C 113.170 442.134,112.573 442.174,113.200 442.384 M246.800 442.400 L 243.800 442.656 247.200 442.688 C 249.070 442.706,251.590 442.584,252.800 442.417 L 255.000 442.113 252.400 442.128 C 250.970 442.137,248.450 442.259,246.800 442.400 M123.400 443.213 C 124.940 443.371,127.100 443.497,128.200 443.492 L 130.200 443.482 127.800 443.185 C 126.480 443.021,124.320 442.896,123.000 442.906 L 120.600 442.926 123.400 443.213 M230.000 443.200 L 226.600 443.451 230.000 443.476 C 231.870 443.489,234.660 443.371,236.200 443.213 L 239.000 442.926 236.200 442.937 C 234.660 442.944,231.870 443.062,230.000 443.200 M136.716 443.897 C 138.099 443.975,140.259 443.974,141.516 443.895 C 142.772 443.816,141.640 443.752,139.000 443.753 C 136.360 443.753,135.332 443.818,136.716 443.897 M201.400 443.997 C 199.200 444.130,202.890 444.160,209.600 444.064 C 216.310 443.968,221.875 443.824,221.967 443.745 C 222.222 443.523,205.924 443.723,201.400 443.997 M147.913 444.295 C 149.076 444.376,150.876 444.376,151.913 444.293 C 152.951 444.211,152.000 444.145,149.800 444.146 C 147.600 444.147,146.751 444.214,147.913 444.295 M156.711 444.693 C 157.651 444.778,159.091 444.777,159.911 444.691 C 160.730 444.605,159.960 444.536,158.200 444.537 C 156.440 444.539,155.770 444.609,156.711 444.693 M171.325 444.699 C 175.024 444.766,180.964 444.765,184.525 444.699 C 188.086 444.633,185.060 444.579,177.800 444.579 C 170.540 444.579,167.626 444.633,171.325 444.699 " stroke="none" fill="#efa5c5" fill-rule="evenodd"></path><path id="path4" d="M221.300 116.294 C 222.345 116.376,224.055 116.376,225.100 116.294 C 226.145 116.212,225.290 116.144,223.200 116.144 C 221.110 116.144,220.255 116.212,221.300 116.294 M217.400 116.800 L 216.600 117.144 217.400 117.166 C 217.840 117.178,218.470 117.013,218.800 116.800 C 219.595 116.286,218.596 116.286,217.400 116.800 M227.800 116.800 C 228.240 116.989,228.960 117.144,229.400 117.144 L 230.200 117.144 229.400 116.800 C 228.960 116.611,228.240 116.456,227.800 116.456 L 227.000 116.456 227.800 116.800 M213.339 118.545 C 210.662 119.988,206.574 123.207,205.394 124.800 C 204.987 125.350,205.632 124.891,206.827 123.781 C 209.363 121.425,211.840 119.699,214.500 118.433 C 216.281 117.585,216.801 117.188,216.100 117.209 C 215.935 117.214,214.693 117.815,213.339 118.545 M232.800 118.532 C 235.735 119.995,237.095 120.827,239.400 122.573 C 240.280 123.239,240.751 123.471,240.448 123.088 C 239.647 122.078,234.855 118.967,232.637 118.016 C 229.774 116.789,229.862 117.069,232.800 118.532 M262.000 120.377 C 261.363 120.566,262.132 120.673,264.118 120.672 C 265.900 120.670,267.014 120.529,266.718 120.341 C 266.094 119.945,263.385 119.965,262.000 120.377 M257.000 122.131 C 254.556 123.426,250.800 125.898,250.800 126.211 C 250.800 126.306,252.075 125.559,253.634 124.550 C 255.193 123.542,257.488 122.293,258.734 121.775 C 259.980 121.257,260.640 120.839,260.200 120.846 C 259.760 120.853,258.320 121.431,257.000 122.131 M269.044 121.851 C 269.900 122.429,270.732 123.104,270.894 123.351 C 271.105 123.673,271.189 123.662,271.194 123.314 C 271.200 122.821,268.514 120.800,267.851 120.800 C 267.652 120.800,268.188 121.273,269.044 121.851 M243.789 126.321 C 247.025 129.661,246.980 129.648,249.033 127.757 C 250.587 126.325,250.589 126.322,249.200 127.285 C 248.430 127.819,247.584 128.384,247.320 128.540 C 247.030 128.710,245.679 127.753,243.920 126.133 L 241.000 123.442 243.789 126.321 M271.834 124.600 C 271.991 125.040,272.237 126.339,272.379 127.486 C 272.724 130.255,273.137 130.596,272.891 127.909 C 272.784 126.749,272.439 125.350,272.123 124.800 C 271.788 124.216,271.668 124.133,271.834 124.600 M202.689 127.700 C 201.939 128.635,200.763 130.233,200.076 131.252 L 198.827 133.104 199.991 134.861 C 200.631 135.828,201.655 137.064,202.265 137.609 C 203.197 138.441,202.974 137.765,201.998 136.800 C 198.921 133.758,199.089 132.654,203.445 127.300 C 204.027 126.585,204.402 126.000,204.278 126.000 C 204.155 126.000,203.440 126.765,202.689 127.700 M272.460 132.481 C 272.427 133.296,272.243 134.376,272.051 134.881 C 271.859 135.387,271.473 136.520,271.193 137.400 C 270.913 138.280,270.080 140.245,269.342 141.766 C 268.604 143.288,268.067 144.601,268.150 144.683 C 268.883 145.416,272.983 134.143,272.695 132.188 C 272.536 131.110,272.514 131.138,272.460 132.481 M204.363 140.400 C 205.092 141.390,206.316 143.055,207.082 144.100 C 207.848 145.145,208.558 146.000,208.659 146.000 C 208.978 146.000,204.673 140.008,203.837 139.288 C 203.398 138.910,203.634 139.410,204.363 140.400 M267.200 145.638 C 267.200 145.879,266.795 146.642,266.300 147.333 C 265.169 148.912,264.400 150.364,264.400 150.922 C 264.400 151.159,265.046 150.284,265.835 148.976 C 267.965 145.450,268.083 145.200,267.614 145.200 C 267.386 145.200,267.200 145.397,267.200 145.638 M209.637 147.600 C 210.796 149.396,210.800 149.401,210.798 148.967 C 210.797 148.765,210.332 148.060,209.765 147.400 L 208.734 146.200 209.637 147.600 M213.316 154.156 C 214.240 156.015,215.059 157.475,215.135 157.398 C 215.319 157.214,212.345 151.213,211.947 150.967 C 211.776 150.862,212.392 152.297,213.316 154.156 M262.926 156.668 C 261.746 162.744,261.602 164.296,261.628 170.624 C 261.644 174.351,261.786 177.729,261.944 178.130 C 262.102 178.532,262.157 175.924,262.066 172.335 C 261.908 166.142,262.261 161.633,263.258 157.111 C 263.487 156.073,263.608 155.024,263.527 154.780 C 263.445 154.536,263.175 155.386,262.926 156.668 M216.192 161.000 C 216.498 163.159,217.196 165.708,217.013 164.000 C 216.931 163.230,216.674 161.970,216.443 161.200 C 216.071 159.964,216.042 159.941,216.192 161.000 M217.328 169.200 C 217.328 170.630,217.401 171.215,217.489 170.500 C 217.578 169.785,217.578 168.615,217.489 167.900 C 217.401 167.185,217.328 167.770,217.328 169.200 M216.718 174.200 C 216.579 175.080,216.353 176.340,216.218 177.000 C 216.066 177.736,216.218 177.533,216.609 176.473 C 216.961 175.524,217.186 174.264,217.110 173.673 C 216.994 172.775,216.931 172.861,216.718 174.200 M215.046 180.246 C 214.692 181.285,214.472 182.205,214.556 182.290 C 214.641 182.374,215.000 181.593,215.354 180.554 C 215.708 179.515,215.928 178.595,215.844 178.510 C 215.759 178.426,215.400 179.207,215.046 180.246 M262.481 180.800 C 262.470 181.570,262.714 182.920,263.024 183.800 C 263.642 185.561,263.629 185.395,262.801 181.000 L 262.500 179.400 262.481 180.800 M213.455 184.283 C 213.100 185.118,212.546 186.385,212.224 187.100 C 211.902 187.815,211.724 188.400,211.828 188.400 C 212.147 188.400,214.525 183.192,214.306 182.972 C 214.193 182.859,213.810 183.449,213.455 184.283 M263.628 186.676 C 263.613 187.158,263.780 187.664,264.000 187.800 C 264.473 188.092,264.473 187.701,264.000 186.600 C 263.669 185.829,263.655 185.831,263.628 186.676 M264.428 189.476 C 264.413 189.958,264.580 190.464,264.800 190.600 C 265.273 190.892,265.273 190.501,264.800 189.400 C 264.469 188.629,264.455 188.631,264.428 189.476 M209.273 192.530 C 208.547 193.889,208.248 194.640,208.608 194.200 C 209.398 193.235,210.908 190.375,210.725 190.192 C 210.653 190.120,210.000 191.172,209.273 192.530 M265.217 191.451 C 265.208 191.699,265.443 192.509,265.741 193.251 C 266.038 193.993,266.403 194.941,266.550 195.357 C 266.698 195.774,266.904 196.029,267.009 195.924 C 267.114 195.820,266.757 194.669,266.217 193.367 C 265.676 192.065,265.226 191.203,265.217 191.451 M206.311 197.488 C 205.542 198.759,204.155 201.032,203.228 202.539 C 202.302 204.045,201.627 205.361,201.729 205.462 C 201.831 205.564,202.508 204.602,203.234 203.324 C 203.960 202.046,205.340 199.766,206.301 198.258 C 207.263 196.750,207.972 195.439,207.879 195.345 C 207.785 195.252,207.079 196.216,206.311 197.488 M267.221 196.602 C 267.195 197.102,270.327 203.600,270.595 203.600 C 270.702 203.600,270.428 202.835,269.985 201.900 C 267.915 197.523,267.241 196.231,267.221 196.602 M270.800 204.320 C 270.800 204.496,270.952 204.811,271.138 205.020 C 271.323 205.229,271.887 206.441,272.390 207.714 C 272.893 208.987,273.401 209.932,273.520 209.814 C 273.738 209.596,273.618 209.291,271.988 205.900 C 271.102 204.058,270.800 203.656,270.800 204.320 M200.431 207.824 C 199.952 208.843,199.624 209.871,199.703 210.108 C 199.781 210.344,200.076 209.922,200.356 209.169 C 200.637 208.416,201.044 207.467,201.261 207.061 C 201.478 206.655,201.576 206.243,201.479 206.146 C 201.382 206.049,200.910 206.804,200.431 207.824 M199.095 211.073 C 198.994 211.253,198.787 211.940,198.636 212.600 C 198.485 213.260,198.258 214.160,198.131 214.600 C 198.004 215.040,198.052 215.256,198.236 215.081 C 198.597 214.737,199.612 211.084,199.405 210.873 C 199.336 210.804,199.197 210.894,199.095 211.073 M274.586 213.400 C 274.985 216.088,276.313 221.739,276.355 220.926 C 276.405 219.956,275.445 215.267,274.814 213.400 L 274.408 212.200 274.586 213.400 M197.408 217.479 C 196.772 220.877,196.748 232.123,197.371 234.800 C 197.703 236.230,197.879 236.680,197.761 235.800 C 197.221 231.763,197.138 221.690,197.623 219.098 C 197.901 217.612,198.031 216.298,197.911 216.177 C 197.791 216.057,197.564 216.643,197.408 217.479 M276.537 227.400 C 276.539 229.160,276.609 229.830,276.693 228.889 C 276.778 227.949,276.777 226.509,276.691 225.689 C 276.605 224.870,276.536 225.640,276.537 227.400 M275.636 237.478 C 275.387 239.415,275.007 241.553,274.792 242.228 C 274.576 242.904,274.413 243.984,274.429 244.628 C 274.450 245.469,274.609 245.179,274.992 243.600 C 275.720 240.601,276.580 234.447,276.309 234.176 C 276.188 234.055,275.885 235.541,275.636 237.478 M198.046 238.400 C 198.065 238.730,198.224 239.450,198.400 240.000 L 198.720 241.000 198.754 240.000 C 198.773 239.450,198.613 238.730,198.400 238.400 C 198.055 237.867,198.016 237.867,198.046 238.400 M198.812 241.600 C 198.812 241.930,198.987 242.470,199.200 242.800 C 199.545 243.333,199.588 243.333,199.588 242.800 C 199.588 242.470,199.413 241.930,199.200 241.600 C 198.855 241.067,198.812 241.067,198.812 241.600 M199.621 244.105 C 199.609 244.493,199.766 245.123,199.968 245.505 C 200.170 245.887,200.734 247.241,201.220 248.514 C 201.707 249.787,202.201 250.732,202.320 250.614 C 202.438 250.496,202.300 249.904,202.014 249.299 C 201.727 248.695,201.354 247.840,201.183 247.400 C 201.013 246.960,200.596 245.880,200.257 245.000 C 199.919 244.120,199.632 243.717,199.621 244.105 M273.849 246.615 C 273.712 246.973,273.616 247.656,273.636 248.133 C 273.662 248.747,273.785 248.608,274.059 247.656 C 274.457 246.272,274.294 245.458,273.849 246.615 M273.188 249.833 C 273.182 250.035,272.827 251.460,272.400 253.000 C 271.973 254.540,271.632 256.160,271.643 256.600 C 271.665 257.468,271.698 257.389,272.318 255.000 C 272.547 254.120,272.958 252.634,273.232 251.698 C 273.505 250.762,273.610 249.877,273.465 249.731 C 273.319 249.586,273.195 249.632,273.188 249.833 M202.400 251.321 C 202.400 251.849,207.674 260.860,207.868 260.665 C 207.989 260.545,203.042 251.708,202.615 251.282 C 202.497 251.164,202.400 251.181,202.400 251.321 M271.073 258.153 C 270.923 258.545,270.811 259.166,270.825 259.533 C 270.842 259.975,270.981 259.874,271.237 259.234 C 271.449 258.703,271.561 258.082,271.485 257.854 C 271.409 257.627,271.224 257.761,271.073 258.153 M270.200 262.000 C 270.048 262.691,270.014 263.347,270.124 263.457 C 270.234 263.567,270.448 263.091,270.600 262.400 C 270.752 261.709,270.786 261.053,270.676 260.943 C 270.566 260.833,270.352 261.309,270.200 262.000 M208.826 263.505 C 208.812 263.783,208.965 264.323,209.167 264.705 C 209.368 265.087,209.753 265.991,210.020 266.713 C 210.288 267.435,210.604 267.930,210.721 267.812 C 210.838 267.695,210.749 267.194,210.522 266.699 C 210.295 266.205,209.826 265.170,209.480 264.400 C 209.134 263.630,208.840 263.227,208.826 263.505 M269.198 266.669 C 268.938 267.951,268.562 269.413,268.363 269.919 C 268.163 270.424,268.012 271.324,268.026 271.919 C 268.043 272.617,268.250 272.221,268.610 270.800 C 269.813 266.053,270.078 264.745,269.879 264.545 C 269.765 264.431,269.458 265.387,269.198 266.669 M267.473 273.753 C 267.323 274.145,267.211 274.766,267.225 275.133 C 267.242 275.575,267.381 275.474,267.637 274.834 C 267.849 274.303,267.961 273.682,267.885 273.454 C 267.809 273.227,267.624 273.361,267.473 273.753 M213.216 275.054 C 213.207 275.304,213.463 276.114,213.784 276.854 C 214.106 277.594,214.376 277.996,214.384 277.746 C 214.393 277.496,214.137 276.686,213.816 275.946 C 213.494 275.206,213.224 274.804,213.216 275.054 M266.622 278.222 C 266.472 279.025,266.438 279.772,266.548 279.882 C 266.658 279.992,266.872 279.425,267.022 278.622 C 267.173 277.819,267.206 277.073,267.096 276.963 C 266.986 276.853,266.773 277.419,266.622 278.222 M265.654 283.243 C 265.358 284.908,265.204 286.614,265.312 287.035 C 265.431 287.500,265.525 287.282,265.554 286.477 C 265.579 285.750,265.797 284.373,266.037 283.418 C 266.278 282.463,266.411 281.352,266.333 280.949 C 266.256 280.545,265.950 281.578,265.654 283.243 M216.032 283.476 C 216.014 283.958,216.180 284.464,216.400 284.600 C 216.620 284.736,216.814 285.242,216.832 285.724 C 216.850 286.228,216.954 286.371,217.078 286.061 C 217.196 285.764,217.105 285.134,216.876 284.661 C 216.646 284.187,216.370 283.530,216.261 283.200 C 216.136 282.821,216.052 282.923,216.032 283.476 M217.228 287.076 C 217.318 288.115,217.944 288.996,217.972 288.124 C 217.987 287.642,217.820 287.136,217.600 287.000 C 217.380 286.864,217.213 286.898,217.228 287.076 M264.649 289.415 C 264.512 289.773,264.424 290.906,264.452 291.933 C 264.505 293.788,264.507 293.785,264.813 291.400 C 265.132 288.918,265.080 288.292,264.649 289.415 M218.997 293.000 C 219.699 296.972,220.742 300.872,220.769 299.628 C 220.786 298.874,220.620 297.704,220.399 297.028 C 220.179 296.353,219.726 294.900,219.392 293.800 C 219.058 292.700,218.881 292.340,218.997 293.000 M263.890 295.950 C 263.731 296.693,263.620 297.863,263.644 298.550 C 263.681 299.617,263.741 299.536,264.049 298.000 C 264.248 297.010,264.359 295.840,264.296 295.400 C 264.218 294.859,264.086 295.037,263.890 295.950 M262.858 305.894 C 262.238 312.719,262.319 324.229,263.013 328.000 C 263.317 329.650,263.480 330.190,263.375 329.200 C 262.821 323.967,262.734 312.891,263.203 307.291 C 263.485 303.931,263.626 301.093,263.518 300.985 C 263.410 300.877,263.113 303.086,262.858 305.894 M220.479 314.250 C 220.436 315.598,220.305 317.308,220.189 318.050 C 219.998 319.278,220.017 319.311,220.405 318.422 C 220.640 317.884,220.770 316.174,220.695 314.622 L 220.559 311.800 220.479 314.250 M219.514 321.800 C 219.357 323.120,219.131 324.830,219.011 325.600 C 218.841 326.698,218.929 326.583,219.418 325.070 C 219.761 324.009,219.987 322.299,219.921 321.270 L 219.800 319.400 219.514 321.800 M218.200 328.800 C 218.050 329.273,218.017 329.750,218.127 329.860 C 218.237 329.970,218.450 329.673,218.600 329.200 C 218.750 328.727,218.783 328.250,218.673 328.140 C 218.563 328.030,218.350 328.327,218.200 328.800 M217.646 331.067 C 217.621 331.324,217.484 331.864,217.341 332.267 C 217.140 332.836,217.194 332.897,217.579 332.542 C 217.852 332.291,217.989 331.751,217.884 331.342 C 217.779 330.934,217.672 330.810,217.646 331.067 M263.668 332.800 C 263.662 333.350,263.811 334.160,264.000 334.600 L 264.344 335.400 264.332 334.600 C 264.326 334.160,264.176 333.350,264.000 332.800 L 263.680 331.800 263.668 332.800 M216.270 335.452 C 215.146 339.066,215.142 339.090,215.847 337.600 C 217.173 334.797,217.277 334.493,217.139 333.804 C 217.063 333.419,216.671 334.160,216.270 335.452 M264.400 337.110 C 264.400 337.793,264.577 338.462,264.794 338.596 C 265.040 338.748,265.094 338.345,264.937 337.520 C 264.600 335.751,264.400 335.599,264.400 337.110 M265.246 339.716 C 265.188 340.618,266.817 345.717,267.079 345.454 C 267.186 345.347,266.910 344.211,266.467 342.930 C 266.023 341.648,265.577 340.240,265.476 339.800 C 265.323 339.130,265.285 339.117,265.246 339.716 M212.825 343.706 C 212.099 345.078,211.684 346.020,211.903 345.800 C 212.479 345.221,214.464 341.531,214.292 341.359 C 214.212 341.278,213.552 342.335,212.825 343.706 M209.544 348.900 C 207.710 351.620,201.677 357.809,198.800 359.922 C 195.677 362.215,195.388 362.453,195.892 362.325 C 198.385 361.691,207.886 352.322,210.925 347.500 C 212.283 345.346,211.201 346.443,209.544 348.900 M268.004 348.697 C 267.999 349.399,272.665 358.395,273.659 359.600 C 274.366 360.455,274.351 360.369,273.557 359.000 C 273.046 358.120,271.588 355.330,270.318 352.800 C 269.047 350.270,268.005 348.424,268.004 348.697 M274.400 360.981 C 274.400 361.329,277.990 366.294,278.620 366.816 C 278.969 367.106,278.241 365.871,277.001 364.072 C 274.961 361.110,274.400 360.443,274.400 360.981 M189.600 365.495 C 189.270 365.622,187.740 366.307,186.200 367.015 C 184.660 367.724,183.040 368.395,182.600 368.506 C 181.826 368.701,181.827 368.709,182.634 368.754 C 183.093 368.779,184.762 368.170,186.344 367.400 C 187.927 366.630,189.386 366.000,189.587 366.000 C 189.788 366.000,190.064 365.820,190.200 365.600 C 190.471 365.161,190.466 365.160,189.600 365.495 M280.652 369.394 C 282.481 371.749,284.007 373.364,283.983 372.918 C 283.973 372.743,282.872 371.430,281.535 370.000 C 279.470 367.790,279.337 367.699,280.652 369.394 M177.000 370.436 C 175.900 370.855,174.640 371.212,174.200 371.230 C 173.716 371.250,173.610 371.347,173.933 371.476 C 174.512 371.707,178.762 370.515,179.380 369.949 C 179.941 369.434,179.283 369.569,177.000 370.436 M171.200 372.000 L 170.200 372.320 171.276 372.360 C 171.868 372.382,172.464 372.220,172.600 372.000 C 172.881 371.545,172.620 371.545,171.200 372.000 M168.000 372.800 C 167.205 373.314,168.204 373.314,169.400 372.800 L 170.200 372.456 169.400 372.434 C 168.960 372.422,168.330 372.587,168.000 372.800 M164.000 373.600 C 163.670 373.813,162.770 374.002,162.000 374.020 C 161.230 374.037,159.520 374.309,158.200 374.624 C 156.126 375.119,156.045 375.170,157.600 374.998 C 160.294 374.700,164.021 374.074,165.600 373.654 L 167.000 373.282 165.800 373.247 C 165.140 373.228,164.330 373.387,164.000 373.600 M284.400 373.458 C 284.400 373.674,284.985 374.379,285.700 375.025 L 287.000 376.200 285.800 374.802 C 285.140 374.033,284.555 373.328,284.500 373.235 C 284.445 373.143,284.400 373.243,284.400 373.458 M152.000 375.600 L 150.600 375.895 152.000 375.919 C 152.770 375.933,153.760 375.789,154.200 375.600 L 155.000 375.256 154.200 375.281 C 153.760 375.294,152.770 375.438,152.000 375.600 M144.800 376.400 L 143.400 376.695 144.800 376.724 C 145.570 376.741,146.920 376.605,147.800 376.423 L 149.400 376.092 147.800 376.099 C 146.920 376.102,145.570 376.238,144.800 376.400 M289.338 378.537 C 290.624 379.783,292.694 381.635,293.938 382.652 C 295.803 384.175,295.673 383.998,293.200 381.644 C 291.550 380.073,289.480 378.222,288.600 377.529 C 287.558 376.709,287.816 377.061,289.338 378.537 M139.930 377.003 C 139.818 377.115,138.123 377.373,136.163 377.577 L 132.600 377.947 136.000 377.777 C 137.870 377.684,140.300 377.450,141.400 377.257 L 143.400 376.907 141.767 376.853 C 140.868 376.824,140.042 376.892,139.930 377.003 M127.000 378.400 L 125.000 378.674 127.200 378.690 C 128.410 378.698,129.940 378.568,130.600 378.400 L 131.800 378.095 130.400 378.110 C 129.630 378.119,128.100 378.249,127.000 378.400 M118.400 379.200 L 116.600 379.480 118.600 379.493 C 119.700 379.500,121.140 379.368,121.800 379.200 L 123.000 378.895 121.600 378.907 C 120.830 378.914,119.390 379.046,118.400 379.200 M107.600 380.211 C 104.744 380.623,104.520 380.703,106.200 380.716 C 107.300 380.724,109.730 380.497,111.600 380.211 C 114.387 379.786,114.640 379.695,113.000 379.707 C 111.900 379.715,109.470 379.942,107.600 380.211 M99.200 381.200 L 97.400 381.480 99.600 381.534 C 100.810 381.563,102.070 381.413,102.400 381.200 C 103.102 380.746,102.118 380.746,99.200 381.200 M92.200 382.000 L 91.000 382.305 92.200 382.313 C 92.860 382.317,93.850 382.176,94.400 382.000 L 95.400 381.680 94.400 381.687 C 93.850 381.691,92.860 381.832,92.200 382.000 M85.600 382.800 C 85.050 382.976,83.880 383.146,83.000 383.177 C 82.120 383.208,80.410 383.493,79.200 383.809 C 77.375 384.286,77.272 384.354,78.600 384.206 C 80.905 383.949,85.843 383.268,88.400 382.855 L 90.600 382.500 88.600 382.490 C 87.500 382.484,86.150 382.624,85.600 382.800 M73.200 384.800 C 72.220 385.114,72.224 385.121,73.400 385.154 C 74.060 385.173,74.870 385.013,75.200 384.800 C 75.958 384.310,74.730 384.310,73.200 384.800 M296.409 384.673 C 296.413 384.853,297.178 385.533,298.109 386.184 C 299.039 386.835,299.546 387.052,299.236 386.665 C 298.484 385.729,296.398 384.259,296.409 384.673 M68.200 385.600 L 67.400 385.944 68.200 385.932 C 68.640 385.926,69.450 385.776,70.000 385.600 L 71.000 385.280 70.000 385.268 C 69.450 385.262,68.640 385.411,68.200 385.600 M64.600 386.400 C 64.160 386.589,63.260 386.781,62.600 386.826 C 61.784 386.883,61.658 386.960,62.207 387.070 C 62.651 387.159,64.001 386.966,65.207 386.642 C 66.413 386.318,66.950 386.053,66.400 386.054 C 65.850 386.055,65.040 386.211,64.600 386.400 M59.000 387.600 L 57.800 387.905 59.000 387.947 C 59.660 387.969,60.470 387.813,60.800 387.600 C 61.543 387.120,60.887 387.120,59.000 387.600 M300.013 387.477 C 300.026 387.813,305.600 391.786,305.600 391.460 C 305.600 391.358,304.656 390.583,303.502 389.738 C 302.349 388.892,301.089 387.965,300.702 387.677 C 300.316 387.390,300.006 387.300,300.013 387.477 M55.200 388.400 C 54.405 388.914,55.404 388.914,56.600 388.400 L 57.400 388.056 56.600 388.034 C 56.160 388.022,55.530 388.187,55.200 388.400 M51.400 389.411 C 50.520 389.701,50.070 389.950,50.400 389.963 C 50.730 389.977,51.810 389.733,52.800 389.421 C 53.790 389.109,54.240 388.860,53.800 388.869 C 53.360 388.877,52.280 389.121,51.400 389.411 M48.000 390.400 C 47.176 390.664,47.141 390.726,47.800 390.754 C 48.240 390.773,48.870 390.613,49.200 390.400 C 49.901 389.947,49.414 389.947,48.000 390.400 M40.000 392.790 C 39.670 392.979,38.809 393.353,38.087 393.621 C 37.365 393.889,36.870 394.204,36.988 394.321 C 37.105 394.438,37.696 394.300,38.301 394.014 C 39.495 393.448,40.657 392.971,41.600 392.661 C 42.002 392.528,41.936 392.460,41.400 392.455 C 40.960 392.451,40.330 392.602,40.000 392.790 M307.600 393.000 C 307.874 393.330,308.346 393.600,308.649 393.600 C 308.952 393.600,309.200 393.780,309.200 394.000 C 309.200 394.220,309.378 394.400,309.596 394.400 C 309.814 394.400,311.255 395.210,312.800 396.200 C 314.345 397.190,315.741 397.997,315.904 397.993 C 316.247 397.985,307.693 392.400,307.338 392.400 C 307.208 392.400,307.326 392.670,307.600 393.000 M33.696 395.509 C 29.403 397.735,26.979 400.566,27.925 402.248 C 28.293 402.901,28.344 402.840,28.316 401.783 C 28.254 399.496,30.321 397.452,34.613 395.553 C 36.266 394.822,36.830 394.388,36.100 394.409 C 35.935 394.413,34.853 394.908,33.696 395.509 M316.400 398.197 C 316.400 398.495,320.052 400.881,320.232 400.701 C 320.329 400.604,319.507 399.964,318.404 399.279 C 317.302 398.594,316.400 398.107,316.400 398.197 M320.800 400.909 C 320.800 401.146,324.289 403.600,324.625 403.600 C 324.787 403.600,324.218 403.095,323.360 402.478 C 321.447 401.102,320.800 400.706,320.800 400.909 M28.764 403.735 C 29.349 404.463,31.600 406.177,31.600 405.894 C 31.600 405.806,30.835 405.126,29.900 404.383 C 28.965 403.640,28.454 403.348,28.764 403.735 M325.400 403.897 C 325.620 404.113,327.870 405.607,330.400 407.216 C 336.022 410.790,340.557 413.903,344.000 416.550 C 347.823 419.490,347.797 419.472,347.467 418.923 C 346.972 418.098,341.053 413.803,333.894 409.075 C 327.341 404.748,324.517 403.025,325.400 403.897 M32.000 406.192 C 32.000 406.483,35.095 408.000,35.684 407.998 C 35.968 407.997,35.314 407.547,34.232 406.998 C 32.151 405.942,32.000 405.888,32.000 406.192 M36.560 408.293 C 36.918 408.652,40.114 409.619,40.306 409.428 C 40.431 409.303,36.923 408.000,36.462 408.000 C 36.355 408.000,36.399 408.132,36.560 408.293 M43.400 410.412 C 44.940 410.862,46.920 411.315,47.800 411.417 C 48.823 411.536,48.317 411.299,46.400 410.761 C 44.750 410.298,42.770 409.846,42.000 409.755 C 41.230 409.665,41.860 409.961,43.400 410.412 M50.800 412.000 C 51.350 412.176,52.160 412.326,52.600 412.332 L 53.400 412.344 52.600 412.000 C 52.160 411.811,51.350 411.662,50.800 411.668 L 49.800 411.680 50.800 412.000 M54.033 412.544 C 54.125 412.624,55.010 412.806,56.000 412.950 C 57.258 413.133,57.619 413.091,57.200 412.812 C 56.660 412.453,53.632 412.197,54.033 412.544 M58.833 413.347 C 58.925 413.428,60.170 413.597,61.600 413.723 C 63.230 413.866,63.827 413.826,63.200 413.616 C 62.220 413.286,58.505 413.058,58.833 413.347 M65.500 414.289 C 66.215 414.378,67.385 414.378,68.100 414.289 C 68.815 414.201,68.230 414.128,66.800 414.128 C 65.370 414.128,64.785 414.201,65.500 414.289 M70.400 414.800 C 70.950 414.976,72.390 415.116,73.600 415.110 L 75.800 415.100 74.000 414.780 C 71.498 414.334,68.991 414.349,70.400 414.800 M80.200 415.613 C 81.740 415.771,84.170 415.898,85.600 415.894 L 88.200 415.887 86.000 415.583 C 84.790 415.416,82.360 415.290,80.600 415.302 L 77.400 415.326 80.200 415.613 M106.800 416.420 C 112.033 416.721,116.462 417.191,119.800 417.799 C 120.962 418.010,120.968 418.003,120.000 417.581 C 118.328 416.852,113.319 416.320,107.000 416.200 L 101.000 416.086 106.800 416.420 M122.597 418.917 C 125.250 420.420,124.758 421.930,120.800 424.442 C 119.810 425.071,119.139 425.588,119.308 425.592 C 120.613 425.625,124.800 421.942,124.800 420.762 C 124.800 419.978,122.471 417.996,121.562 418.007 C 121.253 418.010,121.718 418.420,122.597 418.917 M348.000 419.551 C 348.000 419.798,348.159 420.000,348.354 420.000 C 348.935 420.000,352.855 424.124,353.253 425.155 C 353.456 425.681,353.734 425.999,353.871 425.863 C 354.210 425.524,352.234 422.736,350.666 421.340 C 348.461 419.377,348.000 419.068,348.000 419.551 M114.800 427.195 C 113.810 427.597,112.140 428.147,111.089 428.418 C 110.037 428.689,109.271 429.005,109.387 429.120 C 109.700 429.433,116.250 427.375,116.980 426.734 C 117.566 426.219,116.813 426.378,114.800 427.195 M352.976 428.469 C 352.522 428.934,351.352 429.639,350.376 430.035 C 349.399 430.431,348.944 430.765,349.365 430.778 C 350.358 430.807,353.438 429.000,353.741 428.211 C 354.042 427.424,353.969 427.449,352.976 428.469 M102.704 430.915 C 101.441 431.369,100.476 431.809,100.560 431.893 C 100.767 432.100,104.906 430.769,105.380 430.342 C 105.935 429.842,105.326 429.973,102.704 430.915 M346.200 431.200 L 345.400 431.544 346.200 431.544 C 346.640 431.544,347.360 431.389,347.800 431.200 L 348.600 430.856 347.800 430.856 C 347.360 430.856,346.640 431.011,346.200 431.200 M341.600 432.012 C 341.181 432.291,341.542 432.333,342.800 432.150 C 345.041 431.825,345.360 431.598,343.567 431.606 C 342.815 431.609,341.930 431.792,341.600 432.012 M336.541 432.651 C 336.288 432.755,334.938 433.003,333.541 433.202 L 331.000 433.565 333.600 433.360 C 337.701 433.035,340.684 432.514,338.600 432.485 C 337.720 432.473,336.793 432.548,336.541 432.651 M96.333 433.809 C 94.752 434.844,94.096 435.600,94.776 435.600 C 95.009 435.600,95.200 435.453,95.200 435.274 C 95.200 435.094,95.920 434.543,96.800 434.048 C 98.317 433.196,98.767 432.771,98.100 432.824 C 97.935 432.836,97.140 433.280,96.333 433.809 M327.000 434.000 L 325.800 434.305 327.200 434.313 C 327.970 434.317,329.050 434.176,329.600 434.000 C 330.999 433.552,328.761 433.552,327.000 434.000 M320.800 434.800 L 319.800 435.120 320.800 435.137 C 321.350 435.146,322.520 435.005,323.400 434.823 L 325.000 434.492 323.400 434.486 C 322.520 434.483,321.350 434.624,320.800 434.800 M314.000 435.644 C 313.230 435.832,310.890 436.253,308.800 436.578 C 306.695 436.906,305.981 437.099,307.200 437.011 C 308.410 436.923,310.750 436.645,312.400 436.393 C 314.050 436.141,316.390 435.793,317.600 435.620 L 319.800 435.305 317.600 435.303 C 316.390 435.302,314.770 435.455,314.000 435.644 M94.767 437.345 C 95.300 438.001,96.800 438.993,96.800 438.689 C 96.800 438.613,96.215 438.122,95.500 437.599 C 94.696 437.010,94.416 436.913,94.767 437.345 M301.400 437.600 C 300.306 438.070,302.133 438.070,303.600 437.600 C 304.575 437.288,304.570 437.279,303.400 437.268 C 302.740 437.262,301.840 437.411,301.400 437.600 M295.400 438.416 C 294.884 438.648,295.524 438.691,297.200 438.535 C 298.630 438.402,299.875 438.228,299.967 438.147 C 300.325 437.831,296.153 438.077,295.400 438.416 M287.515 439.019 C 287.394 439.139,285.519 439.399,283.348 439.596 L 279.400 439.954 283.600 439.721 C 285.910 439.593,289.240 439.364,291.000 439.212 L 294.200 438.935 290.967 438.868 C 289.188 438.830,287.635 438.898,287.515 439.019 M102.400 440.394 C 102.730 440.611,103.435 440.791,103.967 440.794 C 105.251 440.802,104.925 440.575,103.200 440.258 C 102.215 440.077,101.978 440.118,102.400 440.394 M273.800 440.400 L 272.200 440.686 273.600 440.704 C 274.370 440.713,275.990 440.584,277.200 440.417 L 279.400 440.113 277.400 440.113 C 276.300 440.113,274.680 440.242,273.800 440.400 M106.800 441.200 C 107.350 441.376,108.340 441.520,109.000 441.520 C 110.167 441.520,110.172 441.511,109.200 441.200 C 108.650 441.024,107.660 440.880,107.000 440.880 C 105.833 440.880,105.828 440.889,106.800 441.200 M262.400 441.200 C 260.392 441.623,263.630 441.633,267.000 441.215 L 269.400 440.918 266.600 440.911 C 265.060 440.908,263.170 441.038,262.400 441.200 M113.000 442.020 C 116.343 442.532,126.614 443.195,134.000 443.376 L 140.200 443.527 134.400 443.190 C 131.210 443.004,125.810 442.656,122.400 442.416 C 118.990 442.176,114.940 441.906,113.400 441.816 L 110.600 441.652 113.000 442.020 M246.800 441.997 C 245.810 442.149,248.240 442.187,252.200 442.081 C 256.160 441.976,259.475 441.824,259.567 441.744 C 259.861 441.489,248.664 441.710,246.800 441.997 M231.600 442.675 C 231.050 442.760,225.830 442.989,220.000 443.184 L 209.400 443.538 220.800 443.328 C 227.070 443.212,234.900 442.990,238.200 442.834 L 244.200 442.549 238.400 442.535 C 235.210 442.527,232.150 442.590,231.600 442.675 M149.200 444.046 C 156.711 444.374,195.283 444.374,201.000 444.046 C 203.420 443.907,191.450 443.793,174.400 443.793 C 157.350 443.793,146.010 443.907,149.200 444.046 " stroke="none" fill="#e991b4" fill-rule="evenodd"></path></g></svg>